<svg width="96" height="48" viewBox="0 0 96 48" fill="none" xmlns="http://www.w3.org/2000/svg">
<g clip-path="url(#clip0)">
<path d="M68.223 35.8603C67.5213 35.8605 66.8353 35.6525 66.2518 35.2628C65.6683 34.8731 65.2134 34.319 64.9448 33.6708C64.6761 33.0226 64.6057 32.3092 64.7425 31.621C64.8793 30.9327 65.217 30.3005 65.7131 29.8042C66.2092 29.308 66.8413 28.97 67.5295 28.8329C68.2177 28.6959 68.9311 28.766 69.5794 29.0344C70.2277 29.3028 70.7819 29.7575 71.1719 30.3408C71.5618 30.9242 71.77 31.6101 71.7702 32.3118C71.7691 33.2524 71.3951 34.1541 70.7301 34.8194C70.0652 35.4846 69.1636 35.8589 68.223 35.8603ZM29.0114 35.8603C28.3097 35.8605 27.6237 35.6525 27.0402 35.2628C26.4567 34.8731 26.0018 34.319 25.7332 33.6708C25.4645 33.0226 25.3941 32.3092 25.5309 31.621C25.6677 30.9327 26.0055 30.3005 26.5015 29.8042C26.9976 29.308 27.6297 28.97 28.3179 28.8329C29.0061 28.6959 29.7195 28.766 30.3678 29.0344C31.0162 29.3028 31.5703 29.7575 31.9603 30.3408C32.3502 30.9242 32.5585 31.6101 32.5586 32.3118C32.5577 33.2524 32.1837 34.1543 31.5187 34.8196C30.8537 35.4848 29.952 35.8591 29.0114 35.8603ZM69.4952 14.491L76.5849 2.21154C76.6818 2.04381 76.7448 1.85863 76.7702 1.66656C76.7956 1.4745 76.7829 1.27931 76.7329 1.09214C76.6829 0.904978 76.5965 0.7295 76.4786 0.575729C76.3607 0.421958 76.2138 0.292905 76.046 0.195939C75.8783 0.0989731 75.6931 0.0359927 75.5011 0.0105938C75.309 -0.0148051 75.1138 -0.00212503 74.9267 0.04791C74.7395 0.097945 74.564 0.184355 74.4102 0.302207C74.2565 0.420058 74.1274 0.567043 74.0304 0.734769L66.8512 13.1693C61.3613 10.6637 55.1955 9.26847 48.6165 9.26847C42.0376 9.26847 35.8725 10.6657 30.3825 13.1693L23.2039 0.734769C23.1071 0.566999 22.9782 0.419945 22.8245 0.302002C22.6708 0.18406 22.4954 0.0975391 22.3083 0.0473799C22.1212 -0.00277922 21.9261 -0.0155944 21.734 0.00966599C21.542 0.0349264 21.3568 0.0977678 21.189 0.194602C21.0212 0.291436 20.8742 0.420367 20.7562 0.574033C20.6383 0.7277 20.5518 0.903091 20.5016 1.0902C20.4515 1.2773 20.4386 1.47245 20.4639 1.66451C20.4892 1.85656 20.552 2.04176 20.6488 2.20953L27.7392 14.491C15.5647 21.1127 7.23758 33.4376 6.01953 47.9994H91.2148C89.9954 33.4376 81.669 21.1127 69.4952 14.491Z" fill="#3DDC84"/>
</g>
<defs>
<clipPath id="clip0">
<rect width="85.1946" height="48" fill="white" transform="translate(6)"/>
</clipPath>
</defs>
</svg>
