<svg width="96" height="48" viewBox="0 0 96 48" fill="none" xmlns="http://www.w3.org/2000/svg">
<path d="M13.7267 10.4124L21.9537 10.4033L8.15101 24.1989L4.55378 27.776L0.460938 23.6781L13.7267 10.4124ZM13.6501 22.7302C13.7569 22.5892 13.9533 22.6587 14.1024 22.6405L21.9466 22.6426L14.7975 29.7846L10.6835 25.6958L13.6501 22.7302Z" fill="#44D1FD"/>
<path opacity="0.54" d="M33.52 16.166L42.4884 16.169L42.4874 17.9349C40.1413 17.9349 37.7942 17.9279 35.4471 17.9379C35.2678 17.9974 35.3524 18.222 35.3322 18.36L35.3393 23.1096C35.3987 23.2879 35.6244 23.2023 35.7634 23.2245L41.7833 23.2215V24.9853C39.9116 24.9843 38.041 24.9843 36.1693 24.9853C35.8913 24.9843 35.6103 24.9672 35.3353 25.0145L35.3141 31.7194C34.7107 31.6952 34.1083 31.7174 33.5049 31.7043L33.5039 16.4511L33.52 16.166V16.166ZM44.6633 16.169H46.5047L46.5057 26.722L46.4856 31.6912C45.8862 31.6801 45.2868 31.6771 44.6885 31.6932C44.6421 31.4474 44.6613 31.1976 44.6613 30.9498L44.6633 16.169V16.169ZM62.6867 17.4776L64.5342 17.4786L64.5372 20.6014C65.4408 20.6235 66.3494 20.5611 67.251 20.6326C67.2258 21.1927 67.247 21.7528 67.2369 22.3128C66.3383 22.3149 65.4408 22.3219 64.5432 22.3088L64.5362 28.5282C64.5553 29.1044 64.6782 29.8004 65.2383 30.0976C65.878 30.4612 66.6637 30.29 67.2691 29.9394V31.7486C66.6023 32.0508 65.8417 32.0871 65.1255 31.9894C64.1161 31.8353 63.1491 31.1473 62.8438 30.147C62.6414 29.599 62.6877 29.0077 62.6837 28.4355L62.6797 22.3783L62.6343 22.3269C61.9967 22.2927 61.357 22.332 60.7183 22.3098C60.7224 21.7397 60.6962 21.1695 60.7325 20.6003C61.3812 20.5893 62.0329 20.6296 62.6807 20.5802L62.6867 17.4776V17.4776ZM70.4916 17.4715C71.1061 17.4927 71.7206 17.4645 72.334 17.4856L72.3764 17.532C72.3995 18.5575 72.3451 19.586 72.4005 20.6094C73.2759 20.5933 74.1513 20.6064 75.0257 20.6014L75.0317 22.2997C74.1513 22.333 73.2679 22.3128 72.3874 22.3078L72.3774 28.6349C72.3764 29.186 72.5355 29.8377 73.0684 30.1087C73.7222 30.4653 74.5149 30.2819 75.1224 29.9173L75.1204 31.7366C74.4726 32.0287 73.7423 32.0851 73.0432 32.0045C72.1356 31.8836 71.2471 31.3709 70.821 30.5398C70.6155 30.1047 70.5007 29.6231 70.4815 29.1426V22.3149C69.8439 22.3138 69.2072 22.3169 68.5706 22.3149L68.5746 20.5953C69.2022 20.6124 69.8298 20.5903 70.4574 20.6114C70.5238 19.5678 70.4523 18.5172 70.4916 17.4715V17.4715ZM79.459 20.6598C80.7343 20.1309 82.206 20.1209 83.5085 20.5641C85.0004 21.0788 86.1548 22.3803 86.5779 23.8903C86.8549 24.7274 86.8438 25.6169 86.8046 26.4873L78.0356 26.4963C78.1082 27.4301 78.3872 28.3821 79.0359 29.0832C79.9576 30.158 81.5442 30.557 82.884 30.1349C83.8238 29.8579 84.5572 29.1346 85.0397 28.3035C85.5736 28.5423 86.0924 28.8142 86.6242 29.059C85.8969 30.4451 84.5743 31.5462 83.02 31.8443C81.7437 32.0831 80.3475 32.0891 79.1769 31.4585C77.6579 30.704 76.6122 29.1678 76.3141 27.5158C76.0975 26.2465 76.165 24.9037 76.6425 23.6989C77.1431 22.3763 78.1555 21.2309 79.459 20.6598V20.6598ZM80.1531 22.2524C79.0802 22.748 78.3892 23.849 78.1736 24.9853L84.8987 24.9642C84.7919 24.2218 84.528 23.4673 83.984 22.9303C83.031 21.9089 81.4022 21.7094 80.1531 22.2524ZM90.7967 22.3985C91.4988 20.693 93.6555 19.7975 95.361 20.5117V22.5022C94.6447 22.2202 93.8419 22.0459 93.0854 22.2685C92.0518 22.5758 91.2872 23.4975 90.9941 24.5119C90.7926 25.1969 90.8682 25.9121 90.8763 26.6142C90.7977 27.5228 90.9155 28.4325 90.8561 29.3411C90.9044 30.1258 90.8138 30.9105 90.8803 31.6963C90.2537 31.7265 89.6271 31.6942 89.0016 31.7154C88.9653 29.3471 88.9965 26.9779 88.9865 24.6086L89.0006 20.6205C89.5879 20.6366 90.1761 20.6185 90.7644 20.6326C90.8178 21.2209 90.699 21.8122 90.7967 22.3985V22.3985ZM49.146 20.5983C49.7705 20.6245 50.4001 20.5611 51.0216 20.6316L51.0126 27.2337C51.0065 28.0406 51.1214 28.922 51.6794 29.5486C52.3997 30.3464 53.6196 30.4925 54.6048 30.1772C55.9214 29.7057 56.8401 28.3116 56.7867 26.9174L56.8068 20.5983L58.6875 20.6024L58.6765 31.6882C58.0801 31.6781 57.4848 31.6882 56.8894 31.6811L56.8824 30.1036C56.4966 30.5882 56.0916 31.0788 55.5386 31.384C54.4063 32.0982 52.9698 32.1929 51.7016 31.8272C50.8836 31.5804 50.1714 31.0072 49.7615 30.2578C49.2749 29.4338 49.152 28.4597 49.1238 27.5208L49.146 20.5983V20.5983Z" fill="black"/>
<path d="M6.58594 29.7922L10.6868 25.6963L14.8008 29.7851L14.818 29.8032L10.6878 33.8951L6.58594 29.7922V29.7922Z" fill="#1FBCFD"/>
<path d="M10.6875 33.8946L14.8176 29.8027L21.9526 36.9448C19.265 36.9508 16.5785 36.9428 13.8919 36.9488C13.7387 36.9831 13.6441 36.8431 13.5463 36.7564L10.6875 33.8946V33.8946Z" fill="#08589C"/>
</svg>
