<svg width="96" height="48" viewBox="0 0 96 48" fill="none" xmlns="http://www.w3.org/2000/svg">
<g clip-path="url(#clip0)">
<path d="M13.136 3.90729C13.136 4.73721 12.6306 5.35116 11.7637 5.35116C11.0418 5.35116 10.5 4.73721 10.5 3.90729C10.5 3.11256 11.0775 2.46282 11.8359 2.46282C12.6306 2.46282 13.136 3.11256 13.136 3.90729ZM11.1376 47.3051V14.1084H12.4984V47.3051H11.1376ZM57.758 23.6524C57.758 40.3891 48.4669 47.9973 38.2968 47.9973C27.9077 47.9973 19.4944 39.7679 19.4944 24.3446C19.4944 8.50824 28.2007 0.000976694 39.0284 0.000976694C49.6366 -0.000236636 57.758 8.3681 57.758 23.6524ZM20.8734 23.9982C20.8734 36.6885 27.0237 46.5468 38.3611 46.5468C49.7773 46.5468 56.3251 36.3851 56.3251 23.8538C56.3251 12.2332 51.0786 1.62805 39.1067 1.62805C27.1348 1.62805 20.8734 11.6132 20.8734 23.9982ZM62.7521 43.7082C65.035 45.2297 68.9753 46.699 72.3641 46.699C78.7959 46.699 84.5162 42.1994 84.5162 35.5764C84.5162 29.4303 80.7057 26.2235 74.2363 23.4686C68.4462 21.0031 63.2404 18.3271 63.2404 11.7569C63.2404 4.91072 68.6343 0.0683165 75.9652 0.0683165C79.9074 0.0683165 82.8812 1.17487 84.2644 2.14311L83.7148 3.33703C82.5391 2.50772 79.3614 1.45091 75.9046 1.45091C68.1569 1.45091 64.782 7.30523 64.782 11.615C64.782 17.5676 69.3963 19.558 75.344 22.3936C82.2594 25.7818 85.9243 28.7697 85.9243 35.2713C85.9243 42.2564 80.9454 47.9263 72.0929 47.9263C68.4268 47.9263 64.2087 46.6821 62.1339 45.0908L62.7521 43.7082Z" fill="black"/>
</g>
<defs>
<clipPath id="clip0">
<rect width="75.4243" height="48" fill="white" transform="translate(10.5)"/>
</clipPath>
</defs>
</svg>
