<svg width="96" height="48" viewBox="0 0 96 48" fill="none" xmlns="http://www.w3.org/2000/svg">
<g clip-path="url(#clip0)">
<mask id="path-1-outside-1" maskUnits="userSpaceOnUse" x="36.668" y="30.8672" width="21" height="11" fill="black">
<rect fill="white" x="36.668" y="30.8672" width="21" height="11"/>
<path d="M41.3996 37.1225C41.3996 37.1225 39.5654 38.1891 42.705 38.55C46.5087 38.9839 48.4525 38.9218 52.6442 38.1284C52.6442 38.1284 53.7463 38.8194 55.2852 39.4179C45.8888 43.4451 34.0191 39.1846 41.3996 37.1225ZM40.2514 31.8672C40.2514 31.8672 38.1941 33.3901 41.3361 33.715C45.3992 34.1342 48.6079 34.1685 54.1603 33.0994C54.1603 33.0994 54.9283 33.8779 56.1359 34.3037C44.7749 37.6258 32.1209 34.5657 40.2514 31.8672Z"/>
</mask>
<path d="M41.3996 37.1225C41.3996 37.1225 39.5654 38.1891 42.705 38.55C46.5087 38.9839 48.4525 38.9218 52.6442 38.1284C52.6442 38.1284 53.7463 38.8194 55.2852 39.4179C45.8888 43.4451 34.0191 39.1846 41.3996 37.1225ZM40.2514 31.8672C40.2514 31.8672 38.1941 33.3901 41.3361 33.715C45.3992 34.1342 48.6079 34.1685 54.1603 33.0994C54.1603 33.0994 54.9283 33.8779 56.1359 34.3037C44.7749 37.6258 32.1209 34.5657 40.2514 31.8672Z" fill="#5382A1"/>
<path d="M42.705 38.55L42.686 38.7156L42.6861 38.7156L42.705 38.55ZM52.6442 38.1284L52.7327 37.9872L52.6774 37.9525L52.6132 37.9646L52.6442 38.1284ZM55.2852 39.4179L55.3508 39.5711L55.7257 39.4105L55.3456 39.2626L55.2852 39.4179ZM41.3361 33.715L41.3189 33.8808L41.319 33.8808L41.3361 33.715ZM54.1603 33.0994L54.279 32.9823L54.2163 32.9188L54.1288 32.9357L54.1603 33.0994ZM56.1359 34.3037L56.1826 34.4637L56.679 34.3185L56.1913 34.1465L56.1359 34.3037ZM41.3996 37.1225C41.3158 36.9784 41.3157 36.9784 41.3157 36.9785C41.3156 36.9785 41.3155 36.9785 41.3155 36.9786C41.3153 36.9787 41.3152 36.9788 41.315 36.9789C41.3146 36.9791 41.3141 36.9794 41.3135 36.9798C41.3122 36.9805 41.3106 36.9815 41.3085 36.9827C41.3044 36.9852 41.2987 36.9886 41.2916 36.9931C41.2773 37.002 41.2573 37.0148 41.2333 37.0311C41.1856 37.0635 41.1209 37.1104 41.0534 37.1684C40.9266 37.2774 40.7571 37.4529 40.7119 37.6663C40.6876 37.7809 40.6997 37.9039 40.7676 38.0225C40.8332 38.1372 40.9439 38.2356 41.0952 38.3202C41.3944 38.4875 41.8956 38.6247 42.686 38.7156L42.724 38.3844C41.9446 38.2948 41.4977 38.1634 41.2579 38.0292C41.1395 37.9631 41.0829 37.9024 41.0569 37.857C41.0331 37.8153 41.0292 37.7768 41.038 37.7355C41.0588 37.6371 41.1517 37.5234 41.2707 37.4212C41.3261 37.3735 41.3802 37.3343 41.4205 37.3069C41.4405 37.2933 41.4569 37.2828 41.468 37.2759C41.4735 37.2725 41.4777 37.2699 41.4803 37.2684C41.4816 37.2676 41.4826 37.267 41.4831 37.2667C41.4833 37.2665 41.4835 37.2665 41.4836 37.2664C41.4836 37.2664 41.4836 37.2664 41.4835 37.2664C41.4835 37.2664 41.4835 37.2665 41.4835 37.2665C41.4834 37.2665 41.4834 37.2665 41.3996 37.1225ZM42.6861 38.7156C46.5073 39.1515 48.468 39.0885 52.6752 38.2921L52.6132 37.9646C48.4371 38.7551 46.5101 38.8163 42.7239 38.3844L42.6861 38.7156ZM52.6442 38.1284C52.5557 38.2696 52.5557 38.2696 52.5557 38.2696C52.5557 38.2696 52.5558 38.2696 52.5558 38.2696C52.5558 38.2697 52.5559 38.2697 52.556 38.2698C52.5562 38.2699 52.5564 38.27 52.5567 38.2702C52.5574 38.2706 52.5583 38.2712 52.5594 38.2719C52.5617 38.2733 52.5651 38.2754 52.5695 38.2782C52.5783 38.2836 52.5913 38.2915 52.6083 38.3018C52.6422 38.3223 52.6921 38.3522 52.7566 38.3897C52.8857 38.4649 53.0735 38.5711 53.3097 38.696C53.7817 38.9458 54.4479 39.2711 55.2248 39.5733L55.3456 39.2626C54.5835 38.9662 53.9293 38.6467 53.4656 38.4014C53.2338 38.2787 53.0499 38.1748 52.9243 38.1016C52.8615 38.0651 52.8132 38.0362 52.7809 38.0167C52.7647 38.0069 52.7525 37.9994 52.7444 37.9944C52.7404 37.9919 52.7374 37.99 52.7354 37.9888C52.7344 37.9882 52.7337 37.9878 52.7333 37.9875C52.7331 37.9874 52.7329 37.9873 52.7328 37.9872C52.7328 37.9872 52.7327 37.9872 52.7327 37.9872C52.7327 37.9871 52.7327 37.9872 52.7327 37.9871C52.7327 37.9872 52.7327 37.9872 52.6442 38.1284ZM55.2195 39.2647C50.5592 41.2621 45.2807 41.2038 42.0922 40.3922C41.2961 40.1895 40.6371 39.9415 40.1534 39.6713C39.6628 39.3972 39.3813 39.1161 39.2913 38.8618C39.2483 38.7403 39.2477 38.622 39.2916 38.5026C39.3366 38.3802 39.4324 38.2462 39.5992 38.1058C39.9354 37.8228 40.5299 37.5385 41.4444 37.283L41.3547 36.9619C40.4242 37.2219 39.7751 37.5219 39.3845 37.8508C39.1878 38.0164 39.0494 38.1954 38.9787 38.3876C38.9069 38.583 38.9092 38.7813 38.9771 38.973C39.1088 39.3452 39.4809 39.6774 39.9908 39.9623C40.5078 40.2511 41.1964 40.5081 42.01 40.7152C45.2603 41.5425 50.6148 41.6009 55.3508 39.5711L55.2195 39.2647ZM40.2514 31.8672C40.1522 31.7332 40.1521 31.7333 40.1521 31.7333C40.152 31.7334 40.152 31.7334 40.1519 31.7335C40.1518 31.7336 40.1516 31.7337 40.1514 31.7338C40.151 31.7341 40.1505 31.7345 40.1498 31.735C40.1486 31.736 40.1468 31.7373 40.1446 31.739C40.1402 31.7423 40.1339 31.7471 40.1261 31.7533C40.1104 31.7656 40.0883 31.7834 40.0616 31.8059C40.0084 31.8508 39.9361 31.9153 39.8595 31.994C39.7107 32.1471 39.5278 32.3718 39.4553 32.6231C39.4181 32.7521 39.4083 32.8942 39.453 33.0373C39.4981 33.1812 39.5935 33.3108 39.7405 33.4221C40.0271 33.6391 40.526 33.7988 41.3189 33.8808L41.3532 33.5492C40.5752 33.4688 40.1529 33.3163 39.9417 33.1563C39.8397 33.0791 39.7919 33.0041 39.7712 32.9378C39.7502 32.8708 39.7521 32.7971 39.7756 32.7155C39.8247 32.5453 39.9598 32.3691 40.0985 32.2264C40.1657 32.1573 40.2296 32.1003 40.2766 32.0607C40.3 32.0409 40.319 32.0256 40.332 32.0154C40.3384 32.0104 40.3434 32.0066 40.3465 32.0042C40.3481 32.003 40.3493 32.0021 40.3499 32.0016C40.3503 32.0013 40.3505 32.0012 40.3506 32.0011C40.3506 32.0011 40.3507 32.001 40.3507 32.0011C40.3507 32.0011 40.3506 32.0011 40.3506 32.0011C40.3506 32.0011 40.3505 32.0011 40.2514 31.8672ZM41.319 33.8808C45.3966 34.3015 48.6218 34.3356 54.1918 33.263L54.1288 32.9357C48.594 34.0015 45.4018 33.9669 41.3532 33.5492L41.319 33.8808ZM54.1603 33.0994C54.0417 33.2164 54.0417 33.2164 54.0417 33.2165C54.0417 33.2165 54.0418 33.2165 54.0418 33.2166C54.0419 33.2166 54.0419 33.2167 54.042 33.2168C54.0422 33.217 54.0424 33.2172 54.0427 33.2174C54.0432 33.218 54.0439 33.2187 54.0448 33.2196C54.0467 33.2214 54.0492 33.224 54.0525 33.2272C54.0591 33.2337 54.0687 33.2429 54.0811 33.2547C54.1059 33.2782 54.1422 33.3117 54.1893 33.353C54.2836 33.4356 54.4214 33.5496 54.5976 33.6769C54.9496 33.9313 55.4577 34.2413 56.0804 34.4609L56.1913 34.1465C55.6065 33.9403 55.1268 33.6481 54.7929 33.4068C54.6262 33.2863 54.4965 33.179 54.409 33.1023C54.3653 33.064 54.3322 33.0334 54.3103 33.0126C54.2993 33.0023 54.2912 32.9944 54.2859 32.9892C54.2833 32.9866 54.2814 32.9848 54.2802 32.9836C54.2797 32.983 54.2793 32.9826 54.279 32.9824C54.2789 32.9823 54.2789 32.9822 54.2789 32.9822C54.2789 32.9822 54.2789 32.9822 54.2789 32.9822C54.2789 32.9822 54.2789 32.9823 54.2789 32.9823C54.2789 32.9823 54.279 32.9823 54.1603 33.0994ZM56.0891 34.1438C50.433 35.7977 44.4561 35.8614 40.9159 35.1795C40.0314 35.0092 39.3063 34.7936 38.779 34.5488C38.2417 34.2993 37.9487 34.0372 37.8625 33.7972C37.7873 33.5874 37.8529 33.328 38.2392 33.0119C38.6254 32.6958 39.294 32.3606 40.3039 32.0254L40.1989 31.709C39.1761 32.0484 38.4616 32.3991 38.0281 32.7539C37.5945 33.1087 37.4036 33.5051 37.5488 33.9098C37.6832 34.2842 38.0876 34.5953 38.6386 34.8511C39.1997 35.1116 39.9537 35.3337 40.8528 35.5068C44.4472 36.1991 50.4778 36.1319 56.1826 34.4637L56.0891 34.1438Z" fill="#ADB0B5" mask="url(#path-1-outside-1)"/>
<mask id="path-3-outside-2" maskUnits="userSpaceOnUse" x="46.8086" y="8.80469" width="12" height="20" fill="black">
<rect fill="white" x="46.8086" y="8.80469" width="12" height="20"/>
<path d="M49.9322 22.952C52.2476 25.6176 49.3239 28.0163 49.3239 28.0163C49.3239 28.0163 55.2028 24.9815 52.5029 21.181C49.9813 17.6371 48.0474 15.876 58.5161 9.80469C58.5161 9.80469 42.0838 13.9087 49.9322 22.9519"/>
</mask>
<path d="M49.9322 22.952C52.2476 25.6176 49.3239 28.0163 49.3239 28.0163C49.3239 28.0163 55.2028 24.9815 52.5029 21.181C49.9813 17.6371 48.0474 15.876 58.5161 9.80469C58.5161 9.80469 42.0838 13.9087 49.9322 22.9519" fill="#E76F00"/>
<path d="M49.3239 28.0163L49.2182 27.8875L49.4004 28.1644L49.3239 28.0163ZM52.5029 21.181L52.6388 21.0845L52.6387 21.0844L52.5029 21.181ZM58.5161 9.80469L58.5997 9.94886L58.4757 9.64299L58.5161 9.80469ZM49.8064 23.0613C50.3645 23.7039 50.5997 24.3211 50.6479 24.8821C50.6963 25.4452 50.5574 25.9652 50.3457 26.4125C50.1338 26.8602 49.8513 27.2301 49.6202 27.4889C49.505 27.618 49.4034 27.7186 49.331 27.7865C49.2948 27.8205 49.266 27.8462 49.2465 27.8633C49.2368 27.8718 49.2294 27.8781 49.2246 27.8821C49.2222 27.8842 49.2204 27.8856 49.2194 27.8865C49.2188 27.887 49.2185 27.8873 49.2183 27.8874C49.2182 27.8875 49.2181 27.8876 49.2181 27.8876C49.2181 27.8876 49.2181 27.8876 49.2181 27.8876C49.2182 27.8875 49.2182 27.8875 49.3239 28.0163C49.4296 28.1452 49.4297 28.1451 49.4298 28.1451C49.4298 28.145 49.4299 28.145 49.43 28.1449C49.4302 28.1448 49.4304 28.1446 49.4306 28.1444C49.4312 28.1439 49.4318 28.1434 49.4327 28.1427C49.4344 28.1412 49.4368 28.1392 49.4399 28.1366C49.446 28.1314 49.4547 28.124 49.4659 28.1142C49.4881 28.0948 49.5198 28.0664 49.5591 28.0296C49.6375 27.9559 49.7462 27.8483 49.8689 27.7109C50.1137 27.4367 50.4174 27.0403 50.647 26.5551C50.8768 26.0694 51.0347 25.49 50.98 24.8536C50.9252 24.2152 50.6576 23.533 50.0581 22.8427L49.8064 23.0613ZM49.3239 28.0163C49.4004 28.1644 49.4005 28.1644 49.4005 28.1644C49.4006 28.1643 49.4007 28.1643 49.4008 28.1642C49.4011 28.1641 49.4014 28.1639 49.4019 28.1637C49.4027 28.1632 49.4039 28.1626 49.4054 28.1618C49.4085 28.1602 49.413 28.1578 49.4188 28.1547C49.4304 28.1486 49.4474 28.1395 49.4692 28.1276C49.5128 28.1038 49.5759 28.0686 49.655 28.0226C49.8132 27.9306 50.0356 27.7952 50.2936 27.6209C50.8088 27.2727 51.4707 26.7664 52.0487 26.1366C52.6256 25.5079 53.1284 24.746 53.3083 23.8865C53.4898 23.0199 53.3393 22.0706 52.6388 21.0845L52.367 21.2776C53.0164 22.1917 53.1435 23.047 52.9821 23.8182C52.8191 24.5967 52.3583 25.3061 51.8031 25.9112C51.2488 26.5151 50.6097 27.005 50.107 27.3447C49.8561 27.5142 49.6402 27.6456 49.4875 27.7344C49.4111 27.7788 49.3506 27.8126 49.3094 27.8351C49.2888 27.8463 49.2731 27.8547 49.2626 27.8603C49.2574 27.8631 49.2534 27.8651 49.2509 27.8665C49.2496 27.8671 49.2487 27.8676 49.2481 27.8679C49.2478 27.868 49.2476 27.8682 49.2475 27.8682C49.2475 27.8682 49.2475 27.8682 49.2474 27.8683C49.2474 27.8683 49.2475 27.8682 49.3239 28.0163ZM52.6387 21.0844C52.002 20.1897 51.4207 19.4312 51.0561 18.6887C50.6959 17.9552 50.5588 17.2581 50.7973 16.4901C51.0387 15.7128 51.6721 14.8377 52.914 13.7717C54.1541 12.7072 55.986 11.4647 58.5997 9.94886L58.4325 9.66051C55.8119 11.1804 53.9597 12.4348 52.6969 13.5188C51.4359 14.6012 50.7475 15.5263 50.479 16.3912C50.2075 17.2653 50.3724 18.0525 50.7569 18.8356C51.137 19.6098 51.7429 20.4005 52.3671 21.2777L52.6387 21.0844ZM58.5161 9.80469C58.4757 9.64299 58.4756 9.64302 58.4755 9.64306C58.4753 9.6431 58.4751 9.64315 58.4748 9.64323C58.4742 9.64337 58.4734 9.64357 58.4724 9.64384C58.4702 9.64438 58.4671 9.64516 58.4631 9.6462C58.4549 9.64828 58.4429 9.65136 58.4272 9.65546C58.3958 9.66365 58.3495 9.67588 58.2897 9.69218C58.17 9.72478 57.996 9.77366 57.7776 9.83902C57.3408 9.96974 56.7261 10.1665 56.0132 10.431C54.5891 10.9594 52.7659 11.7606 51.1864 12.8499C49.6102 13.9368 48.2531 15.3267 47.8012 17.04C47.3461 18.7659 47.8206 20.7731 49.8064 23.0611L50.0581 22.8426C48.1197 20.6091 47.705 18.7121 48.1236 17.125C48.5454 15.5255 49.8248 14.1938 51.3756 13.1243C52.9231 12.0571 54.7176 11.2672 56.1292 10.7435C56.8342 10.4819 57.442 10.2874 57.8732 10.1584C58.0887 10.0938 58.2601 10.0457 58.3773 10.0138C58.4359 9.99782 58.481 9.98591 58.5113 9.97802C58.5264 9.97407 58.5379 9.97113 58.5454 9.96919C58.5492 9.96822 58.5521 9.96751 58.5539 9.96704C58.5549 9.9668 58.5555 9.96663 58.556 9.96653C58.5562 9.96647 58.5563 9.96644 58.5564 9.96641C58.5565 9.96639 58.5565 9.96639 58.5161 9.80469Z" fill="#ADB0B5" mask="url(#path-3-outside-2)"/>
<path d="M62.3077 41.0717L62.3946 40.9321C63.0186 41.2135 63.3609 41.5486 63.3691 41.9337C63.3732 42.125 63.2933 42.3134 63.1481 42.4947C63.0032 42.6758 62.7895 42.8546 62.5155 43.0297C61.4223 43.7281 59.3049 44.4066 56.4457 44.916C50.7212 45.936 41.9808 46.2857 32.3927 44.7308C31.511 44.5879 30.894 44.3993 30.4973 44.1772C30.1007 43.955 29.9068 43.688 29.917 43.3871C29.927 43.0955 30.1292 42.807 30.4339 42.538C30.7417 42.2663 31.1694 42.0009 31.6633 41.757C32.6516 41.269 33.919 40.8598 35.0599 40.6566C35.6304 40.555 36.172 40.5045 36.6329 40.5222C37.0911 40.5399 37.4818 40.6254 37.7398 40.8072L37.9846 40.9796L62.3077 41.0717ZM62.3077 41.0717L62.3073 41.0723L62.3074 41.0723L62.3076 41.0726L62.3097 41.0743L62.3189 41.0825C62.327 41.0899 62.339 41.1012 62.3535 41.116C62.3826 41.1458 62.4214 41.1894 62.4596 41.244C62.5366 41.3544 62.6067 41.5031 62.5993 41.6717C62.5919 41.8369 62.5092 42.0374 62.2492 42.2525C61.9873 42.4691 61.5491 42.6972 60.8412 42.9119C58.1415 43.7298 52.5082 44.2647 46.9478 44.3349C44.1692 44.37 41.4123 44.289 39.0534 44.0699C36.6916 43.8505 34.7379 43.4934 33.56 42.9807L33.5599 42.9807C33.3513 42.8899 33.2297 42.7996 33.1683 42.7168C33.1109 42.6393 33.1042 42.5665 33.1324 42.4905C33.1629 42.4081 33.237 42.3167 33.3547 42.2198C33.4711 42.1239 33.6233 42.028 33.7993 41.9348C34.5053 41.5609 35.5527 41.2502 36.0536 41.1426L36.0537 41.1426C36.5762 41.0293 36.986 40.9833 37.2643 40.9657C37.4035 40.9569 37.5097 40.9551 37.5808 40.9555C37.6163 40.9558 37.643 40.9565 37.6607 40.9572L37.6802 40.9581L37.6848 40.9584L37.6858 40.9584L37.6859 40.9584L62.3077 41.0717ZM57.9688 28.1695L57.9541 28.0875L57.954 28.0875L57.9535 28.0876L57.9516 28.0879L57.9438 28.0893L57.9128 28.0948L57.7918 28.1158C57.6858 28.1341 57.5303 28.1605 57.3324 28.1932C56.9365 28.2586 56.371 28.349 55.6928 28.4489C54.3361 28.6487 52.5291 28.8865 50.7263 29.0385C46.3099 29.4086 41.5747 29.4799 39.2051 29.1626L39.2051 29.1626C38.5028 29.0688 38.0319 28.9553 37.7418 28.8312C37.5967 28.7691 37.5028 28.7068 37.4475 28.6481C37.394 28.5913 37.3787 28.5405 37.3827 28.4935C37.387 28.443 37.4149 28.3823 37.4766 28.3115C37.5378 28.2412 37.627 28.167 37.7417 28.0902C37.971 27.9365 38.2903 27.7801 38.6576 27.6278C39.3913 27.3237 40.3019 27.0422 41.0308 26.8365C41.3949 26.7337 41.713 26.65 41.94 26.592C42.0535 26.563 42.1442 26.5404 42.2065 26.5251L42.2779 26.5077L42.2963 26.5033L42.301 26.5022L42.3021 26.5019L42.3024 26.5019L42.2858 26.4317L42.289 26.3376L42.2834 26.4208L42.2889 26.3376L42.2887 26.3376L42.2881 26.3376L42.286 26.3374L42.2782 26.337L42.2481 26.3354C42.2217 26.3342 42.1826 26.3327 42.1316 26.3316C42.0295 26.3292 41.8795 26.3282 41.6867 26.3332C41.3011 26.3433 40.7442 26.378 40.0569 26.4758C38.6822 26.6714 36.785 27.1199 34.6926 28.1313L34.6926 28.1313C34.381 28.282 34.1503 28.4305 33.9981 28.5775C33.8462 28.7243 33.7633 28.879 33.7721 29.0395C33.7807 29.1997 33.8791 29.3399 34.0303 29.461C34.182 29.5825 34.397 29.6935 34.6633 29.795C35.7264 30.2004 37.692 30.4868 40.0773 30.6256C44.8522 30.9035 51.3549 30.5922 55.796 29.4242L55.8099 29.4205L55.8218 29.4124C56.2776 29.1012 56.8222 28.8096 57.2542 28.5954C57.4699 28.4884 57.657 28.401 57.7901 28.3403C57.8566 28.31 57.9096 28.2864 57.9459 28.2704L57.9875 28.2522L57.9981 28.2476L58.0008 28.2465L58.0014 28.2462L58.0016 28.2461L58.0016 28.2461L57.9542 28.0875L57.9688 28.1695ZM57.8944 35.0943L57.866 35.1091L57.8547 35.1391C57.8396 35.1796 57.8032 35.229 57.7645 35.2726C57.7461 35.2934 57.7288 35.311 57.7161 35.3233C57.7141 35.3253 57.7122 35.3271 57.7104 35.3288L57.6686 35.3398V35.4041C57.6931 35.4508 57.7402 35.4684 57.7701 35.4735L57.7731 35.4847C60.7883 34.692 62.782 33.5949 63.9827 32.42C65.1845 31.244 65.5938 29.9873 65.4286 28.8863C65.0981 26.6827 62.4905 25.1789 59.5803 26.2021L59.58 26.2021C59.313 26.2969 59.1106 26.4533 58.9756 26.5849C58.9079 26.6509 58.8567 26.7111 58.8221 26.7551C58.8048 26.7772 58.7916 26.7952 58.7826 26.808L58.7723 26.823L58.7694 26.8273L58.7686 26.8286L58.7683 26.829L58.7682 26.8291L58.7682 26.8292L58.8384 26.8741L58.7682 26.8292L58.6277 27.0492L58.8696 26.9514L58.8696 26.9514L58.8696 26.9514L58.8696 26.9514L58.8701 26.9512L58.8725 26.9502L58.8829 26.9463C58.8923 26.9427 58.9069 26.9373 58.9268 26.9304C58.9664 26.9164 59.0272 26.8961 59.1102 26.8712C59.2763 26.8213 59.5314 26.7527 59.8853 26.6791L59.8854 26.6791C61.299 26.3844 63.0159 27.3343 63.2854 28.9148C63.554 30.4895 62.3925 32.7569 57.8944 35.0943ZM57.9328 35.1682C66.9385 30.4886 62.7746 25.9916 59.8684 26.5975C59.4269 26.6893 59.1371 26.7736 58.9805 26.8243L57.9328 35.1682Z" fill="#5382A1" stroke="#ADB0B5" stroke-width="0.166666"/>
<mask id="path-6-outside-3" maskUnits="userSpaceOnUse" x="40.4062" y="-1" width="14" height="28" fill="black">
<rect fill="white" x="40.4062" y="-1" width="14" height="28"/>
<path d="M52.5019 0.000138975C52.5019 0.000138975 57.4893 4.98941 47.7715 12.6611C39.9789 18.8152 45.9946 22.3241 47.7683 26.3332C43.2196 22.2292 39.8814 18.6164 42.121 15.254C45.4079 10.3179 54.5141 7.92487 52.5019 0"/>
</mask>
<path d="M52.5019 0.000138975C52.5019 0.000138975 57.4893 4.98941 47.7715 12.6611C39.9789 18.8152 45.9946 22.3241 47.7683 26.3332C43.2196 22.2292 39.8814 18.6164 42.121 15.254C45.4079 10.3179 54.5141 7.92487 52.5019 0" fill="#E76F00"/>
<path d="M47.7715 12.6611L47.6682 12.5302L47.6682 12.5303L47.7715 12.6611ZM47.7683 26.3332L47.6567 26.4569L47.9207 26.2657L47.7683 26.3332ZM42.121 15.254L42.2597 15.3463L42.2597 15.3463L42.121 15.254ZM52.5019 0.000138975C52.384 0.117969 52.3839 0.117887 52.3839 0.117824C52.3839 0.117829 52.3838 0.117785 52.3838 0.117793C52.3838 0.11781 52.3839 0.117902 52.3841 0.118069C52.3844 0.118403 52.385 0.119037 52.386 0.11997C52.3878 0.121836 52.3907 0.124897 52.3947 0.129145C52.4028 0.137641 52.415 0.15088 52.431 0.168788C52.4628 0.204612 52.5092 0.259083 52.5655 0.33163C52.678 0.476779 52.8296 0.693909 52.9825 0.978468C53.2882 1.54743 53.5986 2.38476 53.6142 3.45616C53.6453 5.59185 52.5038 8.71283 47.6682 12.5302L47.8748 12.7919C52.757 8.93764 53.9807 5.72816 53.9475 3.4513C53.931 2.31642 53.6019 1.42696 53.2761 0.820695C53.1133 0.517641 52.9512 0.285049 52.8289 0.127381C52.7678 0.0485183 52.7165 -0.0116941 52.6801 -0.052701C52.6618 -0.0732076 52.6473 -0.0889217 52.637 -0.0997738C52.6319 -0.1052 52.6278 -0.109412 52.6249 -0.112401C52.6235 -0.113895 52.6223 -0.115084 52.6214 -0.115966C52.621 -0.116407 52.6207 -0.116771 52.6204 -0.117059C52.6202 -0.117202 52.6201 -0.117361 52.62 -0.117432C52.6199 -0.117571 52.6197 -0.117691 52.5019 0.000138975ZM47.6682 12.5303C45.7078 14.0785 44.5985 15.4735 44.0794 16.7678C43.5579 18.0682 43.6384 19.2512 44.0252 20.3566C44.4096 21.4549 45.0974 22.479 45.7881 23.4665C46.4841 24.4616 47.1806 25.4168 47.6159 26.4006L47.9207 26.2657C47.4691 25.245 46.7486 24.2582 46.0613 23.2755C45.3686 22.2852 44.7071 21.2958 44.3399 20.2465C43.9751 19.2043 43.902 18.1056 44.3888 16.8919C44.878 15.6721 45.9389 14.3207 47.8748 12.7919L47.6682 12.5303ZM47.88 26.2094C45.6041 24.1561 43.6501 22.2416 42.5412 20.4285C41.988 19.5239 41.6514 18.6543 41.585 17.8134C41.519 16.9763 41.7197 16.157 42.2597 15.3463L41.9823 15.1616C41.4024 16.0321 41.1806 16.9253 41.2527 17.8396C41.3246 18.75 41.6869 19.6706 42.2569 20.6024C43.3944 22.4623 45.3838 24.4063 47.6567 26.4569L47.88 26.2094ZM42.2597 15.3463C43.0667 14.1345 44.2354 13.0725 45.5177 12.032C46.7925 10.9975 48.1886 9.97785 49.4105 8.87133C50.636 7.76157 51.7079 6.54658 52.3436 5.09965C52.9813 3.64815 53.1752 1.97451 52.6634 -0.0410175L52.3403 0.0410175C52.8347 1.98793 52.6449 3.58525 52.0384 4.96556C51.4299 6.35045 50.3972 7.52813 49.1868 8.62425C47.9728 9.7236 46.6018 10.723 45.3076 11.7731C44.0209 12.8173 42.8187 13.9054 41.9823 15.1616L42.2597 15.3463Z" fill="#ADB0B5" mask="url(#path-6-outside-3)"/>
<mask id="path-8-outside-4" maskUnits="userSpaceOnUse" x="35.3828" y="42.4512" width="31" height="6" fill="black">
<rect fill="white" x="35.3828" y="42.4512" width="31" height="6"/>
<path d="M43.1689 47.8484C51.8131 48.4018 65.0872 47.5414 65.4016 43.4512C65.4016 43.4512 64.7973 45.0019 58.2576 46.2332C50.8796 47.6216 41.78 47.4595 36.3828 46.5697C36.383 46.5697 37.4877 47.4841 43.169 47.8484"/>
</mask>
<path d="M43.1689 47.8484C51.8131 48.4018 65.0872 47.5414 65.4016 43.4512C65.4016 43.4512 64.7973 45.0019 58.2576 46.2332C50.8796 47.6216 41.78 47.4595 36.3828 46.5697C36.383 46.5697 37.4877 47.4841 43.169 47.8484" fill="#5382A1"/>
<path d="M65.4016 43.4512L65.5678 43.4639L65.2463 43.3907L65.4016 43.4512ZM58.2576 46.2332L58.2884 46.397L58.2885 46.397L58.2576 46.2332ZM36.3828 46.5697V46.403L36.3557 46.7341L36.3828 46.5697ZM43.1583 48.0147C47.4886 48.292 52.9804 48.2154 57.4334 47.556C59.6584 47.2265 61.6351 46.75 63.0797 46.0933C64.5132 45.4417 65.4816 44.5844 65.5678 43.4639L65.2354 43.4384C65.1643 44.3631 64.3557 45.1471 62.9417 45.7899C61.5388 46.4276 59.5978 46.8985 57.3845 47.2263C52.9608 47.8813 47.4934 47.9582 43.1796 47.6821L43.1583 48.0147ZM65.4016 43.4512C65.2463 43.3907 65.2464 43.3904 65.2465 43.3902C65.2465 43.3901 65.2466 43.3898 65.2467 43.3897C65.2468 43.3894 65.2469 43.3891 65.247 43.3889C65.2472 43.3884 65.2474 43.388 65.2475 43.3877C65.2477 43.3871 65.2478 43.3869 65.2478 43.387C65.2476 43.3873 65.2468 43.3891 65.2451 43.3924C65.2418 43.3989 65.2349 43.4113 65.2233 43.429C65.2002 43.4645 65.1577 43.5217 65.085 43.597C64.9397 43.7477 64.6736 43.9705 64.2006 44.235C63.2536 44.7645 61.4868 45.4556 58.2268 46.0694L58.2885 46.397C61.5681 45.7795 63.3733 45.0795 64.3633 44.5259C64.8589 44.2488 65.1526 44.007 65.3249 43.8284C65.4111 43.7391 65.4669 43.6656 65.5023 43.6114C65.52 43.5844 65.5326 43.5622 65.5413 43.5454C65.5456 43.537 65.549 43.5299 65.5515 43.5243C65.5528 43.5215 65.5539 43.519 65.5548 43.5169C65.5552 43.5159 65.5556 43.5149 65.5559 43.514C65.5561 43.5136 65.5563 43.5132 65.5564 43.5128C65.5565 43.5126 65.5566 43.5123 65.5567 43.5122C65.5568 43.5119 65.5569 43.5117 65.4016 43.4512ZM58.2268 46.0694C50.8692 47.454 41.7892 47.2921 36.4099 46.4052L36.3557 46.7341C41.7708 47.6269 50.8901 47.7892 58.2884 46.397L58.2268 46.0694ZM36.3828 46.7363C36.3287 46.7273 36.2797 46.7006 36.2788 46.6999C36.2786 46.6997 36.2782 46.6994 36.2782 46.6994C36.278 46.6993 36.2783 46.6995 36.2784 46.6996C36.2788 46.6999 36.2793 46.7003 36.2799 46.7008C36.2812 46.7018 36.2828 46.703 36.2847 46.7045C36.2884 46.7074 36.2934 46.7111 36.2997 46.7156C36.3122 46.7245 36.3298 46.7365 36.3534 46.7512C36.4005 46.7805 36.4714 46.8206 36.5727 46.8688C36.7753 46.965 37.1002 47.0939 37.6008 47.233C38.6017 47.5112 40.3103 47.8321 43.1584 48.0147L43.1797 47.6821C40.3464 47.5004 38.662 47.182 37.6901 46.9119C37.2044 46.7769 36.898 46.6543 36.7158 46.5677C36.6248 46.5245 36.565 46.4903 36.5295 46.4682C36.5117 46.4571 36.5001 46.4491 36.4936 46.4445C36.4904 46.4422 36.4884 46.4407 36.4877 46.4401C36.4873 46.4398 36.4872 46.4397 36.4873 46.4399C36.4874 46.4399 36.4875 46.44 36.4876 46.4401C36.4876 46.4401 36.4877 46.4401 36.4877 46.4401C36.4877 46.4401 36.4876 46.4401 36.4876 46.44C36.4875 46.44 36.4871 46.4397 36.4868 46.4394C36.486 46.4388 36.4369 46.412 36.3828 46.403V46.7363Z" fill="#ADB0B5" mask="url(#path-8-outside-4)"/>
</g>
<defs>
<clipPath id="clip0">
<rect width="96" height="48" fill="white"/>
</clipPath>
</defs>
</svg>
