<svg width="96" height="48" viewBox="0 0 96 48" fill="none" xmlns="http://www.w3.org/2000/svg">
<path d="M53.1883 22.4082L43.5757 25.5471L35.2128 29.238L32.8732 29.8557C32.2773 30.4225 31.6526 30.9965 30.9768 31.5778C30.2357 32.2171 29.5455 32.7985 29.015 33.2198C28.4265 33.6848 27.5546 34.5567 27.1114 35.1088C26.4502 35.9371 25.9271 36.8162 25.7019 37.492C25.3022 38.7127 25.4985 39.9478 26.2686 41.0887C27.2568 42.5417 29.2258 44.0239 31.5217 45.0339C32.6916 45.5498 34.6606 46.211 36.1428 46.5815C38.6058 47.2064 43.3722 47.8821 45.9951 47.9839C46.5254 48.0057 47.2375 48.0057 47.2665 47.9839C47.3247 47.9474 47.7316 47.1701 48.2039 46.2038C49.817 42.9123 50.9794 39.8243 51.6115 37.1869C51.9893 35.5885 52.2872 33.4596 52.4833 30.9385C52.5343 30.2337 52.556 27.8723 52.5124 27.073C52.4469 25.7652 52.3307 24.7044 52.1492 23.6654C52.1201 23.5128 52.1127 23.3747 52.1273 23.3675C52.1563 23.3457 52.2435 23.3167 53.4278 22.9751L53.1882 22.4084V22.4083H53.1883V22.4082ZM50.9941 23.6943C51.0812 23.6943 51.3137 25.9249 51.3718 27.3345C51.3864 27.6324 51.379 27.8286 51.3645 27.8286C51.3065 27.8286 50.1366 27.1384 49.3012 26.6153C48.5745 26.1575 47.1941 25.242 46.9762 25.0676C46.9033 25.0168 46.9106 25.0095 47.5065 24.806C48.5163 24.4645 50.9141 23.6943 50.9941 23.6943ZM46.0969 25.3074C46.1623 25.3074 46.3293 25.4017 46.729 25.6488C48.2257 26.5861 50.2602 27.7196 51.1321 28.0975C51.4008 28.2137 51.4298 28.1701 50.8124 28.5915C49.49 29.4925 47.8405 30.3788 45.8207 31.2726C45.4647 31.4324 45.1668 31.5559 45.1596 31.5559C45.1451 31.5559 45.1886 31.3743 45.2466 31.1563C45.7335 29.347 46.0096 27.5161 46.0242 26.0484C46.0315 25.3218 46.0315 25.3218 46.0969 25.3001C46.0823 25.3074 46.0895 25.3074 46.0969 25.3074ZM45.087 25.6924C45.1305 25.7359 45.1015 27.3635 45.0433 27.8067C44.9125 28.8676 44.7091 29.8557 44.375 30.9674C44.295 31.2361 44.2223 31.4615 44.2079 31.4759C44.1787 31.5122 43.1833 30.5386 42.8563 30.1608C42.2895 29.5069 41.8464 28.853 41.5195 28.2136C41.3523 27.8866 41.0908 27.2473 41.1126 27.2255C41.2288 27.1456 45.0579 25.6634 45.087 25.6924ZM40.3351 27.5597C40.3423 27.5597 40.3496 27.5597 40.3569 27.5669C40.3714 27.5815 40.4224 27.6978 40.466 27.8285C40.6984 28.4606 41.2214 29.3906 41.6721 29.9865C42.1661 30.6404 42.8128 31.3379 43.3504 31.7956C43.5248 31.9409 43.6846 32.0789 43.7063 32.1008C43.75 32.1444 43.7645 32.1371 42.5801 32.5876C41.2071 33.1107 39.7102 33.6338 37.9955 34.186C37.5858 34.3181 37.1766 34.4513 36.7677 34.5857C36.7022 34.6075 36.7241 34.5711 36.913 34.2733C37.763 32.9436 39.0563 30.3352 39.7829 28.4897C39.9065 28.17 40.03 27.8503 40.0518 27.7777C40.0809 27.6759 40.1171 27.6396 40.2116 27.5887C40.2624 27.5743 40.3134 27.5597 40.3351 27.5597ZM38.8821 28.1627C38.9038 28.1774 38.5333 28.9547 38.17 29.6668C37.4651 31.04 36.695 32.3915 35.6633 34.0335C35.4889 34.3168 35.3219 34.5785 35.3 34.6075C35.2637 34.6584 35.2491 34.6438 35.1329 34.4186C34.8858 33.9318 34.6823 33.3069 34.5734 32.7329C34.4644 32.1661 34.4862 31.178 34.6098 30.5677C34.7041 30.1173 34.6969 30.1246 34.9149 30.0155C35.8449 29.5433 38.853 28.1337 38.8821 28.1627ZM51.4154 28.6714V28.9766C51.4154 30.5968 51.2411 32.8201 50.9867 34.4405C50.9431 34.7238 50.9066 34.9562 50.8995 34.9636C50.8995 34.9636 50.6888 34.9055 50.4418 34.8328C49.352 34.4912 48.1676 33.9899 47.0995 33.4015C46.3946 33.0164 45.3702 32.3842 45.3994 32.3551C45.4065 32.3479 45.7117 32.188 46.0677 31.9991C47.492 31.258 48.8578 30.4588 50.0421 29.6668C50.4854 29.3689 51.1537 28.8894 51.2992 28.7586L51.4154 28.6714ZM33.3963 30.8219C33.4254 30.8219 33.4181 30.8801 33.3745 31.1417C33.3454 31.3306 33.3091 31.6794 33.2947 31.919C33.2364 32.9799 33.4109 33.7646 33.934 34.8399C34.0793 35.1378 34.1957 35.3849 34.1883 35.3921C34.1374 35.4357 29.3276 36.8454 27.8162 37.2595C27.3658 37.3829 26.9735 37.492 26.9443 37.4991C26.8935 37.5137 26.8862 37.5065 26.908 37.3829C27.0751 36.3149 27.8889 34.9198 29.0223 33.7427C29.778 32.9581 30.381 32.5004 31.4128 31.9117C32.1539 31.4904 33.2946 30.8584 33.3818 30.8292C33.3818 30.822 33.3891 30.8219 33.3963 30.8219ZM44.7309 32.8491C44.7382 32.8419 44.9125 32.9364 45.1232 33.0599C46.6781 33.9608 48.8433 34.7964 50.6887 35.2251L50.8559 35.2614L50.6234 35.3921C49.6571 35.9298 46.4819 37.2521 43.2342 38.4656C42.7618 38.6399 42.2969 38.8143 42.2096 38.8506C42.1224 38.8869 42.0425 38.9088 42.0425 38.9015C42.0425 38.8941 42.1733 38.6399 42.3403 38.3275C43.2485 36.6273 44.1641 34.5566 44.6291 33.118C44.6873 32.9799 44.7236 32.8565 44.7309 32.8491ZM43.5757 33.227C43.5831 33.2344 43.5249 33.3868 43.4521 33.5612C42.8201 35.0943 41.9917 36.7655 40.9309 38.64C40.6621 39.1196 40.4368 39.5047 40.4295 39.5047C40.4223 39.5047 40.2043 39.3738 39.9427 39.214C38.4023 38.2694 37.0364 37.1069 36.1428 35.9807L36.012 35.8209L36.6731 35.6392C39.0418 34.9926 41.0543 34.2951 43.0525 33.4378C43.3359 33.3215 43.5684 33.227 43.5757 33.227ZM50.7543 35.7337C50.7543 35.7337 50.7615 35.7409 50.7543 35.7337C50.7615 35.9008 50.3909 37.3976 50.0857 38.4801C49.8315 39.3883 49.6134 40.1004 49.2139 41.3573C49.0395 41.9096 48.887 42.3672 48.8796 42.3672C48.8724 42.3672 48.8288 42.36 48.7852 42.3455C46.6273 41.9531 44.6946 41.4082 42.8782 40.6816C42.3695 40.4781 41.643 40.1512 41.5994 40.1149C41.5849 40.1002 42.0209 39.8969 42.573 39.6571C45.879 38.2112 49.3084 36.5691 50.4854 35.8644C50.6234 35.7772 50.7324 35.7337 50.7543 35.7337ZM34.1811 36.3004C34.1956 36.3149 33.2728 37.6446 31.9795 39.4537C31.529 40.0859 31.0059 40.827 30.8098 41.103C30.6136 41.3792 30.3157 41.8151 30.1486 42.0767L29.8433 42.549L29.5163 42.2729C29.1312 41.9531 28.4628 41.2702 28.165 40.8924C27.54 40.115 27.1187 39.294 26.9516 38.5457C26.8717 38.1968 26.8717 38.0224 26.9442 38.0007C27.0532 37.9716 28.9932 37.5139 30.8097 37.0924C31.8197 36.8599 32.9894 36.5839 33.4108 36.4821C33.8322 36.3803 34.1738 36.3004 34.1811 36.3004ZM35.111 36.6565L35.3435 36.918C36.3899 38.0878 37.4579 38.9526 38.7512 39.7081C38.9838 39.8389 39.1581 39.9551 39.1435 39.9625C39.0928 39.9988 34.6533 41.5753 32.5971 42.2874C31.4419 42.6942 30.49 43.0212 30.4828 43.0212C30.4756 43.0212 30.4102 42.9777 30.3374 42.9268L30.2067 42.8323L30.4174 42.5272C31.1003 41.539 31.9578 40.4565 33.8251 38.2041L35.111 36.6565ZM40.9092 40.8051C40.9163 40.7979 41.236 40.9141 41.6284 41.0596C42.573 41.4155 43.3213 41.6407 44.324 41.8951C45.5592 42.2075 47.3466 42.5127 48.4002 42.5998C48.56 42.6143 48.6472 42.6289 48.6181 42.6507C48.5672 42.6798 47.4992 43.0359 46.7145 43.2829C45.4647 43.6752 41.6502 44.8013 38.5405 45.6951C37.9665 45.8622 37.4724 46.0003 37.4434 46.0075C37.3708 46.0221 37.1309 45.9566 37.1309 45.9275C37.1309 45.9131 37.3053 45.6879 37.516 45.4408C38.5622 44.191 39.6013 42.7961 40.466 41.4737C40.7057 41.1103 40.9092 40.8124 40.9092 40.8051ZM39.6303 40.8416C39.6376 40.8488 39.1217 41.677 38.2209 43.1011C37.8357 43.7042 37.407 44.3871 37.2544 44.6269C37.1091 44.8594 36.8911 45.2228 36.7677 45.4262L36.5569 45.7968L36.448 45.7677C36.1863 45.695 34.3481 45.0483 33.8613 44.8522C33.2582 44.6124 32.6334 44.3218 32.1683 44.0748C31.5871 43.7623 30.8606 43.2973 30.9187 43.2828C30.9332 43.2756 31.9286 43.0066 33.1274 42.6798C36.3099 41.815 38.0754 41.3138 39.2307 40.9505C39.4415 40.8851 39.6231 40.8342 39.6303 40.8416ZM48.6762 42.963H48.6834C48.7125 43.0358 47.5356 46.3054 47.1067 47.337C47.0124 47.5695 46.9762 47.6278 46.9252 47.6204C46.8017 47.6132 45.0943 47.3734 44.0551 47.2208C42.2461 46.9447 39.2089 46.4142 38.4461 46.2399L38.2717 46.2037L39.3542 45.9565C41.6793 45.4333 42.7982 45.15 43.9316 44.8013C45.363 44.3653 46.7799 43.8204 48.2112 43.152C48.4364 43.0502 48.6253 42.9703 48.6762 42.963Z" fill="url(#paint0_linear)"/>
<path d="M43.2769 0.000372143C43.1171 -0.0213057 40.5376 0.908697 38.8738 1.58433C36.6287 2.49992 34.885 3.37186 33.8096 4.12734C33.4101 4.41082 32.9086 4.91209 32.8288 5.10823C32.7998 5.18091 32.7852 5.26809 32.7852 5.35527L33.7588 6.27803L36.0765 7.01913L41.5913 8.0073L47.8979 9.08992L47.9633 8.54499C47.9416 8.54499 47.927 8.53775 47.9054 8.53775L47.0768 8.40691L46.9099 8.10905C46.0525 6.59774 45.1079 4.72316 44.5558 3.45891C44.1271 2.47801 43.7202 1.34467 43.4949 0.530859C43.3714 0.036792 43.3569 0.0077432 43.2771 0.00050609V0.0003384H43.2769V0.000372143ZM43.1605 0.37104H43.168C43.1751 0.37821 43.2042 0.581787 43.2333 0.821416C43.3567 1.83877 43.5822 2.8195 43.9381 3.88034C44.2069 4.6796 44.2069 4.63604 43.8945 4.54153C43.1534 4.33815 39.833 3.76414 37.428 3.42993C37.0429 3.37903 36.7159 3.3282 36.7159 3.32097C36.6869 3.29192 38.4524 2.36909 39.2299 2.00589C40.2253 1.54804 42.9572 0.407326 43.1605 0.37104ZM36.1564 3.62607L36.4399 3.72042C37.9801 4.24363 41.8527 4.98477 43.9889 5.15913C44.2286 5.18094 44.4322 5.20278 44.4393 5.20278C44.4465 5.21002 44.2432 5.31901 43.9816 5.44248C42.95 5.95836 41.8164 6.5905 41.0317 7.07733C40.7993 7.22258 40.5885 7.33891 40.5595 7.33891C40.5304 7.33891 40.3779 7.30982 40.218 7.28801L39.9274 7.24435L39.2009 6.53227C37.9221 5.2899 36.9194 4.33085 36.5343 3.96748L36.1564 3.62607ZM35.8659 3.85125L36.8903 5.13008C37.4497 5.83486 38.0165 6.52507 38.1401 6.67758C38.2635 6.83026 38.3653 6.95383 38.358 6.96107C38.329 6.98285 36.8759 6.69943 36.1056 6.52513C35.3137 6.34343 34.9867 6.25625 34.4999 6.10374L34.1003 5.9729V5.87111C34.1075 5.38428 34.7252 4.65776 35.7714 3.91672L35.8659 3.85125ZM44.5702 5.59506C44.5993 5.59506 44.6355 5.66043 44.7227 5.8566C44.9697 6.4015 45.7401 7.86926 45.9288 8.15258C45.9871 8.24713 46.0886 8.25437 45.0643 8.08724C42.6013 7.68753 41.8092 7.55689 41.8092 7.54235C41.8092 7.53511 41.8819 7.48422 41.9763 7.43332C42.7393 7.012 43.5094 6.47427 44.1924 5.90026C44.3595 5.76219 44.5121 5.63142 44.5411 5.60957C44.5483 5.59506 44.563 5.58783 44.5702 5.59506Z" fill="url(#paint1_linear)"/>
<path d="M32.8798 5.00684C32.8798 5.00684 32.7201 5.26124 32.8726 5.63908C32.9672 5.8715 33.2432 6.15482 33.5556 6.44551C33.5556 6.44551 36.7889 9.59882 37.1812 10.0494C38.9685 12.1128 39.746 14.1472 39.8187 16.9518C39.8623 18.7537 39.5207 20.3377 38.6707 22.1759C37.1594 25.4746 33.9697 29.1148 29.0508 33.1546L29.7702 32.9148C30.2352 32.5659 30.8673 32.1955 32.3495 31.3817C35.7716 29.507 39.6225 27.785 44.3453 26.0122C51.1459 23.4546 62.328 20.4611 68.6927 19.4876L69.354 19.3858L69.2522 19.2259C68.671 18.3249 68.2713 17.7655 67.7917 17.1697C66.3968 15.4405 64.704 14.0383 62.6331 12.8757C59.7849 11.2846 56.1011 10.0421 51.4366 9.11936C50.5574 8.9449 48.6247 8.61072 47.0553 8.37095C43.7276 7.85521 41.5769 7.49912 39.2083 7.09223C38.3583 6.94685 37.0867 6.72893 36.2439 6.54734C35.8079 6.45278 34.9724 6.25664 34.3185 6.03142C33.7954 5.82788 33.0397 5.62444 32.8798 5.00684ZM34.7545 6.82335C34.7617 6.81618 34.8779 6.85964 35.0306 6.91053C35.3067 7.00488 35.6627 7.11391 36.0842 7.23024C36.4031 7.31795 36.7228 7.40271 37.0433 7.48451C37.4792 7.59343 37.8424 7.69519 37.8497 7.69519C37.9006 7.74608 38.6345 10.0928 38.8815 10.9937C38.9758 11.3353 39.0487 11.6259 39.0414 11.6259C39.0339 11.6333 38.9541 11.5097 38.8597 11.3426C38.0096 9.84578 36.6654 8.32726 35.1105 7.10657C34.9071 6.96139 34.7545 6.83059 34.7545 6.82335ZM38.3293 7.81149C38.3656 7.81149 38.5255 7.8333 38.7215 7.87685C39.9567 8.15294 42.1728 8.57436 43.5896 8.81416C43.8294 8.85045 44.0184 8.89414 44.0184 8.90858C44.0184 8.92319 43.9311 8.97395 43.8221 9.03215C43.5824 9.15561 42.616 9.72956 42.2964 9.94757C41.4898 10.4852 40.7633 11.0665 40.2401 11.5896C40.0295 11.8003 39.8477 11.9747 39.8477 11.9747C39.8477 11.9747 39.8043 11.8512 39.7678 11.6986C39.5064 10.6886 38.9613 9.19183 38.4673 8.13836C38.3873 7.9713 38.3219 7.81869 38.3219 7.80421C38.3219 7.81872 38.3219 7.81149 38.3293 7.81149ZM44.6214 9.01033C44.665 9.02481 44.7376 9.27187 44.8829 9.81677C45.1518 10.8704 45.2753 12.0474 45.2317 13.1445C45.2171 13.4497 45.2026 13.733 45.188 13.7694L45.1663 13.842L44.7885 13.7185C44.011 13.4715 42.7469 13.1009 41.6643 12.7958C41.0466 12.6287 40.5454 12.4761 40.5454 12.4616C40.5454 12.4179 41.4464 11.517 41.8314 11.1755C42.5651 10.5288 44.5559 8.98849 44.6214 9.01033ZM45.1227 9.08291C45.1445 9.06123 48.1308 9.57697 49.4895 9.83858C50.4995 10.0347 51.9671 10.3399 52.0542 10.3763C52.0978 10.3908 51.9452 10.478 51.4584 10.6959C49.5403 11.5606 48.1161 12.3379 46.6995 13.2826C46.3289 13.5296 46.0164 13.733 46.0092 13.733C46.0019 13.733 45.9947 13.5224 45.9947 13.268C45.9947 11.8876 45.7186 10.4925 45.2098 9.3155C45.159 9.19923 45.1154 9.09028 45.1227 9.08291ZM52.8462 10.6088C52.868 10.6306 52.7735 11.2192 52.6863 11.5678C52.4248 12.6505 51.72 14.2563 50.8555 15.7675C50.7028 16.0363 50.5648 16.2543 50.5501 16.2616C50.5358 16.2688 50.3396 16.1598 50.1143 16.029C49.2715 15.5349 48.3124 15.0699 47.2661 14.6339C46.9756 14.5105 46.7212 14.4087 46.7139 14.3943C46.663 14.3506 49.0026 12.803 50.2378 12.0619C51.2187 11.4662 52.8171 10.5797 52.8462 10.6088ZM53.3983 10.6959C53.4638 10.6959 54.7862 11.0593 55.4763 11.2627C57.1838 11.7714 59.1455 12.4906 60.4243 13.0719L60.9546 13.3117L60.5842 13.3988C57.46 14.1181 54.7862 14.9465 52.2068 15.9927C51.996 16.0799 51.8071 16.1526 51.7927 16.1526C51.7781 16.1526 51.8508 15.9855 51.9453 15.782C52.7227 14.1327 53.224 12.4107 53.3474 10.9429C53.3549 10.8049 53.3765 10.6959 53.3983 10.6959ZM40.2329 13.7185C40.2546 13.6967 41.2646 13.9365 41.8095 14.089C42.6378 14.3216 44.3961 14.91 44.3961 14.9537C44.3961 14.9609 44.2 15.128 43.9675 15.3316C43.0157 16.1235 42.1002 16.959 41.003 18.0198C40.676 18.3323 40.4 18.5866 40.3855 18.5866C40.3709 18.5866 40.3638 18.5429 40.3709 18.4848C40.538 17.2641 40.5018 15.6948 40.2692 14.1036C40.2474 13.9001 40.2256 13.7258 40.2329 13.7185ZM61.4562 13.7404C61.4705 13.7548 60.9911 14.5105 60.6859 14.9391C60.2501 15.5639 59.6105 16.3924 58.1646 18.2088C57.4019 19.1678 56.5444 20.2505 56.2611 20.6137C55.9704 20.977 55.7307 21.2821 55.7233 21.2821C55.7161 21.2821 55.6218 21.1514 55.52 20.9916C54.7062 19.7709 53.7325 18.7028 52.5773 17.7438C52.3593 17.5621 52.1197 17.3659 52.0397 17.3078C51.9598 17.2497 51.8943 17.1915 51.8943 17.1843C51.8943 17.1625 53.1294 16.632 54.0668 16.2543C55.7089 15.5858 57.9465 14.7866 59.6251 14.2707C60.5042 13.9946 61.4416 13.7258 61.4562 13.7404ZM62.0156 13.8856C62.0445 13.8784 62.219 13.9656 62.4297 14.089C64.1953 15.0989 65.9245 16.3996 67.2906 17.7365C67.6756 18.1144 68.6274 19.1025 68.6128 19.1097C68.6128 19.1097 68.2786 19.1388 67.8863 19.1678C64.8274 19.4004 60.9113 20.0469 57.1475 20.9551C56.8933 21.0132 56.6681 21.0641 56.6535 21.0641C56.6391 21.0641 56.9223 20.7808 57.2784 20.4393C59.4872 18.3105 60.4972 16.9663 61.6887 14.5685C61.8557 14.2126 62.0011 13.9074 62.0156 13.8856C62.0083 13.8856 62.0083 13.8856 62.0156 13.8856ZM45.8347 15.5423C45.9365 15.564 46.8811 16.0073 47.5931 16.3633C48.247 16.6901 49.2279 17.2134 49.2787 17.2569C49.286 17.2641 48.9372 17.4458 48.5087 17.6565C47.1426 18.3395 45.9729 18.9861 44.7521 19.7272C44.4034 19.938 44.1128 20.1124 44.1056 20.1124C44.0765 20.1124 44.0837 20.0832 44.2799 19.7272C44.9339 18.5357 45.4569 17.1116 45.7549 15.7238C45.7839 15.6149 45.813 15.5423 45.8347 15.5423ZM44.8901 15.7166C44.912 15.7384 44.665 16.6321 44.5124 17.1189C44.2144 18.0416 43.7131 19.1969 43.2264 20.0688C43.11 20.2721 42.9357 20.57 42.8412 20.7371L42.6596 21.0278L42.2528 20.6355C41.7805 20.1777 41.3954 19.8944 40.9014 19.64C40.7051 19.5384 40.5526 19.4511 40.5526 19.4367C40.5526 19.3785 41.795 18.2524 42.7468 17.4386C43.4298 16.85 44.8684 15.6948 44.8901 15.7166ZM50.6666 18.0925L51.0226 18.325C51.8362 18.8555 52.7952 19.5602 53.5292 20.1777C53.9433 20.5192 54.7425 21.2386 54.9025 21.4129L54.9895 21.5075L54.4011 21.6745C51.0734 22.5972 48.5013 23.4183 45.5005 24.5227C45.1663 24.6462 44.8829 24.7479 44.8611 24.7479C44.8176 24.7479 44.7812 24.7842 45.5296 24.0939C47.4478 22.3285 49.1479 20.3811 50.4122 18.4848L50.6666 18.0925ZM49.148 18.4703C49.1625 18.4848 48.1671 19.8871 47.5712 20.6791C46.8592 21.6237 45.5949 23.2075 44.7231 24.2392C44.3599 24.668 44.0475 25.024 44.0329 25.0313C44.011 25.0385 44.0038 24.9295 44.0038 24.7624C44.0038 23.8832 43.7786 22.9459 43.3862 22.1467C43.2191 21.8125 43.19 21.7326 43.2264 21.6963C43.3644 21.5727 45.4788 20.3666 46.8156 19.6474C47.7166 19.1678 49.126 18.4558 49.148 18.4703ZM39.964 20.7227C39.9858 20.7227 40.153 20.8098 40.3419 20.9116C40.8069 21.1659 41.221 21.4493 41.5916 21.7545C41.606 21.769 41.4172 21.9216 41.1702 22.1031C40.4799 22.5972 39.4337 23.3892 38.8234 23.8761C38.1839 24.3847 38.1622 24.3992 38.2348 24.2902C38.7144 23.5564 38.9541 23.1422 39.2085 22.6119C39.4337 22.1396 39.6588 21.5801 39.8187 21.0933C39.8768 20.8826 39.9495 20.7227 39.964 20.7227ZM42.4126 22.6408C42.4489 22.6337 42.4926 22.699 42.6887 22.9897C43.1028 23.6071 43.4225 24.4355 43.5026 25.104L43.5169 25.2493L42.5217 25.6345C40.7414 26.3246 39.0995 27.0077 37.9877 27.5162C37.6753 27.6615 37.1304 27.9231 36.7744 28.0976C36.4184 28.2791 36.1277 28.4172 36.1277 28.4099C36.1277 28.4027 36.3529 28.2356 36.629 28.032C38.8016 26.4555 40.6834 24.7261 42.0929 22.9969C42.2455 22.8152 42.3836 22.6481 42.398 22.6409L42.4126 22.6408ZM41.2865 22.917C41.3155 22.946 40.4873 23.8833 39.9205 24.4573C38.5182 25.8887 37.1304 27.0077 35.4084 28.0976C35.1905 28.2356 34.9943 28.359 34.9725 28.3736C34.9216 28.4027 34.987 28.33 35.7426 27.5089C36.2222 26.9931 36.5855 26.5571 36.9996 26.0195C37.2757 25.6636 37.3266 25.6127 37.7263 25.3292C38.7943 24.559 41.2574 22.8879 41.2865 22.917Z" fill="url(#paint2_radial)"/>
<defs>
<linearGradient id="paint0_linear" x1="32.7319" y1="43.2521" x2="36.2079" y2="41.1982" gradientUnits="userSpaceOnUse">
<stop stop-color="#909CA9"/>
<stop offset="1" stop-color="#EDEDEE"/>
</linearGradient>
<linearGradient id="paint1_linear" x1="32.8106" y1="4.53093" x2="35.6075" y2="4.53093" gradientUnits="userSpaceOnUse">
<stop stop-color="#939FAB"/>
<stop offset="1" stop-color="#DCDEE1"/>
</linearGradient>
<radialGradient id="paint2_radial" cx="0" cy="0" r="1" gradientUnits="userSpaceOnUse" gradientTransform="translate(46.9237 17.3583) rotate(-171.457) scale(3.60587 7.21352)">
<stop stop-color="#EE352C"/>
<stop offset="1" stop-color="#A91D22"/>
</radialGradient>
</defs>
</svg>
