<svg width="96" height="48" viewBox="0 0 96 48" fill="none" xmlns="http://www.w3.org/2000/svg">
<g clip-path="url(#clip0)">
<path d="M68.8835 36.9918C66.2325 36.9257 64.1779 37.1908 62.4547 37.9198C61.9575 38.1184 61.1621 38.1186 61.0958 38.7483C61.361 39.0135 61.3941 39.4443 61.6261 39.8087C62.0242 40.4713 62.7196 41.3662 63.3493 41.8303C64.0451 42.3604 64.7413 42.8905 65.47 43.3545C66.7626 44.1499 68.2208 44.6137 69.48 45.4091C70.2093 45.8727 70.9379 46.4697 71.667 46.9666C72.0316 47.2314 72.2634 47.6626 72.7276 47.8281V47.7289C72.4954 47.4304 72.4291 46.9997 72.1973 46.6683C71.8662 46.3369 71.5344 46.0386 71.203 45.7072C70.2421 44.415 69.0492 43.2882 67.7568 42.3604C66.6965 41.6313 64.3765 40.6372 63.9459 39.411C63.9459 39.411 63.9125 39.378 63.8796 39.3449C64.6085 39.2786 65.47 39.0135 66.1662 38.8146C67.2928 38.5161 68.32 38.5826 69.48 38.2843C70.0101 38.1518 70.5404 37.9861 71.0704 37.8204V37.5223C70.4743 36.9257 70.0434 36.1305 69.4137 35.5671C67.7237 34.1086 65.8677 32.6839 63.9459 31.491C62.9185 30.8282 61.5928 30.3973 60.4993 29.8341C60.102 29.635 59.4389 29.5358 59.2071 29.2044C58.6104 28.4754 58.279 27.5145 57.8483 26.6528C56.8876 24.83 55.9594 22.8087 55.1309 20.8869C54.5347 19.5943 54.1701 18.3018 53.441 17.1091C50.0277 11.4755 46.3162 8.06225 40.6166 4.7151C39.3903 4.01931 37.9322 3.72103 36.3748 3.35666C35.5466 3.32333 34.7178 3.25724 33.8895 3.2239C33.3592 2.99191 32.8289 2.3624 32.365 2.06412C30.4764 0.87101 25.6047 -1.7135 24.213 1.69975C23.3181 3.8536 25.5387 5.97431 26.3005 7.06819C26.8643 7.83026 27.5931 8.69176 27.9908 9.55346C28.2228 10.1165 28.2889 10.7134 28.5209 11.3098C29.0513 12.7675 29.5481 14.3916 30.2442 15.7504C30.6088 16.4462 31.0063 17.1752 31.4703 17.8049C31.7354 18.1692 32.1992 18.3351 32.2989 18.9315C31.8351 19.5943 31.8017 20.5886 31.5364 21.417C30.3435 25.1616 30.8077 29.8009 32.4975 32.5513C33.0276 33.3795 34.287 35.2027 35.9771 34.5065C37.4684 33.9102 37.137 32.0213 37.5675 30.3644C37.6673 29.9663 37.601 29.7015 37.7997 29.4364V29.5029C38.2637 30.4304 38.7275 31.3255 39.1583 32.2533C40.1857 33.8768 41.975 35.5671 43.4662 36.6939C44.2618 37.2901 44.8913 38.3175 45.8856 38.682V38.5824H45.8191C45.6202 38.2842 45.322 38.1518 45.057 37.9196C44.4606 37.3234 43.7976 36.5943 43.3338 35.9314C41.9422 34.0755 40.7158 32.0211 39.6223 29.9002C39.0922 28.8732 38.628 27.7463 38.1974 26.7191C37.9983 26.321 37.9983 25.7249 37.6671 25.5262C37.17 26.2551 36.441 26.8848 36.0765 27.7795C35.4472 29.2044 35.3807 30.9607 35.1487 32.7831C35.0161 32.8167 35.0822 32.7831 35.0159 32.8498C33.9558 32.5843 33.5912 31.491 33.1933 30.563C32.1991 28.2103 32.0333 24.4325 32.8952 21.7152C33.1272 21.0193 34.1215 18.8323 33.7238 18.1694C33.5249 17.5397 32.8619 17.1752 32.4975 16.6782C32.0669 16.0485 31.6027 15.2535 31.3046 14.5573C30.5092 12.7016 30.1115 10.647 29.25 8.79119C28.8523 7.9295 28.1567 7.03504 27.5931 6.23963C26.9636 5.34499 26.2676 4.7151 25.7705 3.65475C25.6049 3.29038 25.3728 2.69382 25.6379 2.29612C25.7042 2.03098 25.8366 1.93175 26.1019 1.86546C26.5327 1.50071 27.759 1.9647 28.1894 2.16355C29.4157 2.6603 30.4429 3.12467 31.4703 3.82046C31.9341 4.15188 32.4312 4.78158 33.0276 4.94729H33.7236C34.7841 5.17909 35.9769 5.01357 36.9711 5.31166C38.7277 5.87488 40.3181 6.70343 41.7432 7.59827C46.0844 10.3487 49.663 14.2591 52.0824 18.9315C52.4801 19.6934 52.6456 20.3898 53.0101 21.1848C53.7063 22.8087 54.5678 24.4656 55.2634 26.0563C55.9594 27.6136 56.6221 29.2044 57.6163 30.4969C58.1134 31.1925 60.1016 31.5573 60.9964 31.9218C61.6593 32.2199 62.6867 32.4853 63.283 32.8496C64.4097 33.5452 65.5363 34.341 66.5969 35.1029C67.1271 35.5006 68.7838 36.3292 68.8835 36.9918Z" fill="#00546B"/>
<path d="M35.0811 8.19434C34.5179 8.19434 34.1204 8.261 33.7227 8.36024V8.42652H33.7889C34.0543 8.95679 34.5179 9.32135 34.8491 9.78515C35.1144 10.3152 35.3462 10.8457 35.6116 11.376C35.6445 11.3426 35.6777 11.3097 35.6777 11.3097C36.1418 10.9781 36.3736 10.448 36.3736 9.65258C36.1748 9.42078 36.1416 9.18879 35.9759 8.95679C35.7773 8.62518 35.3462 8.45966 35.0811 8.19434Z" fill="#00546B"/>
</g>
<defs>
<clipPath id="clip0">
<rect width="48.7607" height="48" fill="white" transform="translate(24)"/>
</clipPath>
</defs>
</svg>
