<svg width="96" height="48" viewBox="0 0 96 48" fill="none" xmlns="http://www.w3.org/2000/svg">
<path d="M33.3371 12.6521C36.7969 23.6933 38.1067 43.3926 48.2247 43.3926C48.9944 43.3926 49.7732 43.313 50.5544 43.1584C41.3562 40.9208 40.267 21.4364 34.6548 11.3457C34.2148 11.763 33.7782 12.1984 33.3359 12.651L33.3371 12.6521Z" fill="url(#paint0_linear)"/>
<path d="M34.6641 11.3444C40.2773 21.4362 41.3666 40.9206 50.5636 43.157C51.3026 43.0112 52.0288 42.8067 52.7352 42.5453C44.4807 38.3237 42.1988 19.4033 35.8249 10.2949C35.4383 10.6303 35.0518 10.9817 34.6652 11.3455L34.6641 11.3444Z" fill="url(#paint1_linear)"/>
<path d="M42.746 5.34672C41.9774 5.34672 41.1975 5.42517 40.4152 5.5798C38.3675 5.98343 36.288 6.90324 34.1914 8.29491C34.7644 8.88613 35.3091 9.56036 35.8218 10.296C37.9537 8.44954 40.0719 7.08516 42.1821 6.2654C42.9746 5.95841 43.7625 5.72874 44.555 5.57753C43.9646 5.42228 43.3565 5.34469 42.746 5.34672Z" fill="#14559A"/>
<path d="M59.1712 38.6545C60.0525 37.9194 60.8997 37.1443 61.7101 36.3317C58.1945 25.3416 56.9359 5.36035 46.7474 5.36035C46.0198 5.36035 45.2841 5.43198 44.5508 5.57297C53.8308 7.98223 55.0201 29.055 59.1723 38.6534L59.1712 38.6545Z" fill="url(#paint2_linear)"/>
<path d="M44.555 5.57459C43.9646 5.41941 43.3565 5.34182 42.7461 5.34379L46.7517 5.3597C46.024 5.3597 45.2884 5.4302 44.555 5.57346" fill="#3092C4"/>
<path d="M59.0014 40.9894C58.5948 40.5794 58.2114 40.1471 57.8531 39.6943C56.1385 40.9609 54.4307 41.9217 52.7344 42.5459C53.8272 43.1078 55.0393 43.3983 56.2681 43.3929C58.1725 43.3929 59.6768 43.1576 60.9593 42.5163C60.2388 42.1008 59.5799 41.5869 59.0014 40.9894Z" fill="#1969BC"/>
<path d="M42.1836 6.26648C50.4949 10.803 51.218 31.3517 57.8512 39.6948C58.2946 39.3674 58.7357 39.0217 59.1757 38.6556C55.0235 29.0572 53.8365 7.98218 44.5576 5.5752C43.7663 5.72982 42.9749 5.95836 42.1836 6.26648Z" fill="url(#paint3_linear)"/>
<path d="M35.8203 10.2972C42.1942 19.4055 44.4761 38.326 52.7306 42.5476C54.4281 41.9223 56.1359 40.9615 57.8493 39.6961C51.2162 31.3518 50.493 10.8054 42.1817 6.2666C40.0715 7.08523 37.9521 8.4496 35.8203 10.2972Z" fill="url(#paint4_linear)"/>
<path d="M29.2607 12.3872C28.2624 14.7453 27.2414 17.8436 26.0078 21.8878C28.4614 18.2802 30.9071 15.1717 33.3379 12.6533C33.0316 11.6514 32.6703 10.6672 32.2555 9.70508C31.2094 10.5446 30.2096 11.4403 29.2607 12.3883V12.3872Z" fill="url(#paint5_linear)"/>
<path d="M33.1452 9.02441C32.8529 9.24385 32.5573 9.46784 32.2617 9.70433C32.6483 10.5866 33.0064 11.5781 33.3419 12.6525C33.7841 12.2011 34.2219 11.7657 34.6607 11.3473C34.2153 10.5358 33.7091 9.75933 33.1463 9.02441H33.1452Z" fill="#2B74B1"/>
<path d="M34.1906 8.2959C33.8426 8.52671 33.4959 8.77002 33.1445 9.02357C33.708 9.75969 34.215 10.5373 34.6613 11.3498C35.0478 10.9837 35.4355 10.6313 35.821 10.297C35.3328 9.58708 34.7879 8.91786 34.1917 8.2959H34.1906Z" fill="#125A9E"/>
<path d="M90.8868 4.50455C86.1854 23.4262 76.3676 38.6253 68.1358 42.4569H68.1188C67.9698 42.5274 67.8209 42.5911 67.6753 42.6536C67.6549 42.6673 67.6356 42.6684 67.6208 42.6764L67.4934 42.7264C67.4741 42.7389 67.4548 42.7434 67.4366 42.7514C67.3684 42.7764 67.3001 42.7991 67.2319 42.8264C67.2024 42.8401 67.1751 42.848 67.1466 42.8583C67.1132 42.8714 67.079 42.8828 67.0443 42.8924C67.0136 42.906 66.9818 42.9151 66.9454 42.9288C66.9158 42.9413 66.8851 42.947 66.8579 42.9595C66.7976 42.9777 66.7419 42.9936 66.6816 43.0163C66.6566 43.0163 66.6339 43.0288 66.6077 43.0356C66.5702 43.0493 66.5281 43.0584 66.4883 43.0698C66.461 43.0823 66.4383 43.0868 66.4087 43.0925C66.3659 43.105 66.3226 43.1164 66.2791 43.1266L66.1211 43.1641C66.494 43.3074 66.8806 43.3801 67.299 43.3801C75.1055 43.3801 82.9757 28.7791 95.9986 4.5H90.8856L90.8868 4.50455Z" fill="url(#paint6_linear)"/>
<path d="M24.3166 6.11249C24.3223 6.11249 24.3279 6.09999 24.3314 6.09999C24.337 6.09999 24.3461 6.09999 24.3496 6.08634H24.3598C24.403 6.07156 24.4428 6.05337 24.4849 6.03632C24.4962 6.03632 24.503 6.03632 24.511 6.02381C24.5224 6.02381 24.5326 6.0113 24.5428 6.00903C24.5895 5.99425 24.6361 5.97492 24.6793 5.959H24.6861C24.7896 5.92717 24.8851 5.88737 24.9863 5.84985C24.9999 5.84985 25.0135 5.83735 25.0306 5.83735C25.0727 5.82256 25.1159 5.80665 25.1591 5.79641C25.1784 5.78504 25.1989 5.78504 25.2171 5.77709C25.2625 5.76344 25.3057 5.74752 25.3467 5.73729C25.366 5.73729 25.3831 5.72478 25.3967 5.72365C25.54 5.68272 25.6821 5.64406 25.8253 5.60768C25.8458 5.60768 25.8629 5.59517 25.8845 5.59289C25.9254 5.5812 25.9672 5.57283 26.0095 5.56788C26.0277 5.55424 26.0493 5.55424 26.0709 5.54855C26.113 5.53491 26.1528 5.53377 26.1971 5.52354H26.2267C26.3131 5.50535 26.4018 5.48943 26.4882 5.47351H26.5405C26.5826 5.45987 26.6201 5.45873 26.661 5.45077C26.6838 5.45077 26.7065 5.4394 26.7292 5.4394C26.7679 5.4394 26.8066 5.42576 26.8452 5.42007C26.8645 5.42007 26.885 5.42007 26.9078 5.40757C26.9987 5.39506 27.0931 5.38938 27.1886 5.38142C26.9129 5.35242 26.6358 5.33724 26.3586 5.33594C17.5675 5.33594 5.45523 22.3611 0 44.4071H1.05057C2.68299 41.3628 4.26662 38.2925 5.80087 35.1976C9.62112 19.5823 17.4049 8.93334 24.3189 6.11136" fill="url(#paint7_linear)"/>
<path d="M29.2656 12.3862C30.2149 11.4381 31.215 10.5424 32.2616 9.70293C32.0342 9.18446 31.8 8.70466 31.5475 8.26465C30.7437 9.28225 30.0081 10.6262 29.2656 12.3862Z" fill="#0D82CA"/>
<path d="M29.9853 6.24174C30.5595 6.74428 31.0734 7.43557 31.5452 8.26443C31.693 8.07455 31.8431 7.89832 31.9989 7.73459C31.3725 7.11403 30.6565 6.59089 29.875 6.18262C29.9052 6.19945 29.9364 6.21463 29.9682 6.2281C29.9682 6.2281 29.9796 6.24174 29.9853 6.24174Z" fill="#0D82CA"/>
<path d="M5.80078 35.1995C13.8165 19.0783 17.614 8.875 24.3176 6.11328C17.4059 8.9364 9.62217 19.5865 5.80192 35.1995H5.80078Z" fill="url(#paint8_linear)"/>
<path d="M32.0017 7.73438C31.8459 7.90037 31.697 8.07433 31.5469 8.26421C31.7993 8.70422 32.0335 9.18289 32.2632 9.70362C32.5588 9.466 32.8544 9.24201 33.1466 9.02371C32.7839 8.55641 32.4007 8.12209 32.0017 7.73438Z" fill="#127BCA"/>
<path d="M9.43764 44.3364C9.38761 44.35 9.33758 44.35 9.2921 44.3546H9.26368C9.22275 44.3546 9.17841 44.3682 9.14089 44.3682H9.11928C9.01923 44.3796 8.92031 44.3796 8.82367 44.3887H8.79297C16.9065 44.151 20.6153 39.9124 22.4549 33.7636C23.8534 29.102 25.0017 25.1748 26.0091 21.8799C22.6118 26.8712 19.1986 32.8222 15.7649 39.4883C14.1106 42.7014 11.5945 44.043 9.43536 44.3307" fill="url(#paint9_linear)"/>
<path d="M9.4375 44.334C11.5955 44.0475 14.1116 42.707 15.7671 39.4928C19.1985 32.8278 22.614 26.8757 26.009 21.8833C27.2437 17.8379 28.2625 14.7407 29.263 12.3838C22.4968 19.1056 15.7034 30.2821 9.4375 44.3295" fill="url(#paint10_linear)"/>
<path d="M5.79604 35.1973C4.26224 38.2923 2.67898 41.3625 1.04688 44.4068H4.10535C4.51011 41.18 5.08429 38.1022 5.79604 35.1984" fill="#05A1E6"/>
<path d="M26.9079 5.41551C26.8829 5.41551 26.8647 5.42801 26.8431 5.42801C26.8056 5.44166 26.767 5.44166 26.7294 5.44507C26.7056 5.44507 26.684 5.44507 26.6612 5.45871C26.6191 5.47008 26.5805 5.47236 26.5396 5.48031C26.5214 5.48031 26.5032 5.48031 26.4873 5.49282C26.3997 5.50874 26.3133 5.52579 26.2257 5.54057H26.1973C26.1559 5.55203 26.1137 5.56077 26.0711 5.56672C26.0484 5.57923 26.0279 5.57923 26.0075 5.58492C25.9654 5.59629 25.9245 5.60311 25.8835 5.60993C25.8619 5.62357 25.8449 5.62357 25.8255 5.62471C25.6811 5.65996 25.539 5.69861 25.3958 5.74068C25.381 5.74068 25.3651 5.75205 25.3469 5.75546C25.3035 5.76832 25.2603 5.78159 25.2173 5.79526C25.1979 5.8089 25.1763 5.8089 25.1581 5.81345C25.115 5.82589 25.0722 5.83915 25.0296 5.85324C25.0137 5.85324 24.999 5.86575 24.9842 5.86575C24.8853 5.90441 24.7875 5.94306 24.6863 5.97604C24.6431 5.98968 24.5953 6.00787 24.5498 6.02493C24.5317 6.03743 24.5146 6.04084 24.493 6.0488C24.4498 6.06358 24.4066 6.08178 24.3668 6.09883C24.3509 6.1102 24.3361 6.11247 24.3247 6.1193C17.6211 8.88102 13.8236 19.0843 5.80674 35.2055C5.06585 38.2397 4.50172 41.3143 4.11719 44.4139H4.54583C5.75444 44.4139 6.09553 44.4014 7.48719 44.4014H8.83451C8.93002 44.3889 9.02894 44.3889 9.13013 44.3809H9.14832C9.19039 44.3809 9.23132 44.3673 9.27225 44.3673H9.30068C9.34616 44.3673 9.39732 44.3559 9.44621 44.3491C15.7132 30.3017 22.5056 19.1241 29.2729 12.4011C30.0164 10.6422 30.7509 9.29715 31.5536 8.28183C31.0841 7.45297 30.5701 6.76055 29.996 6.25801C29.996 6.25801 29.9801 6.25801 29.9789 6.24436C29.9459 6.23072 29.9153 6.21367 29.8823 6.19661L29.789 6.14658C29.7572 6.13303 29.7261 6.11785 29.6958 6.1011C29.656 6.08746 29.623 6.06927 29.5878 6.05221C29.5582 6.04084 29.5321 6.0272 29.5025 6.01356C29.4427 5.98941 29.3836 5.96363 29.3252 5.93624L29.2501 5.90668C29.2053 5.88979 29.1609 5.87159 29.1171 5.85211C29.0944 5.83846 29.0716 5.83619 29.0455 5.82709L28.8624 5.76115H28.8465C28.776 5.73613 28.7066 5.71908 28.6339 5.69861C28.6168 5.68497 28.6032 5.68497 28.5861 5.6827C28.5224 5.6645 28.4667 5.64631 28.4076 5.6304C28.3917 5.6304 28.3781 5.61675 28.3655 5.61675C28.2179 5.57706 28.0689 5.54293 27.9187 5.51442C27.9039 5.51442 27.888 5.50305 27.8732 5.50305C27.8093 5.48957 27.7448 5.47857 27.6799 5.47008C27.664 5.45757 27.6549 5.45757 27.6413 5.45757C27.5657 5.44559 27.4899 5.43535 27.4139 5.42688H27.373C27.3116 5.41437 27.2536 5.4121 27.1967 5.40527C27.099 5.41892 27.0069 5.42347 26.9159 5.43256" fill="url(#paint11_linear)"/>
<path d="M72.5228 14.9808C70.9799 20.137 69.7303 24.3904 68.6445 27.89C72.8752 21.8118 77.0445 14.1667 81.0137 5.34375C76.384 6.86048 73.9133 10.3351 72.5228 14.9808Z" fill="url(#paint12_linear)"/>
<path d="M68.7864 42.1335C68.5704 42.2472 68.3544 42.3575 68.1406 42.4553C76.3724 38.6237 86.1913 23.4257 90.8927 4.50293H89.9399C79.1398 24.6422 75.6652 38.1223 68.7864 42.1335Z" fill="url(#paint13_linear)"/>
<path d="M63.4101 40.4419C65.2008 38.16 66.6596 34.2817 68.6516 27.8896C66.3549 31.1823 64.0411 34.0146 61.7274 36.3226C61.7274 36.3363 61.7274 36.3363 61.7148 36.3442C62.2197 37.9235 62.7734 39.3163 63.4055 40.4419" fill="#079AE1"/>
<path d="M63.4084 40.4404C62.7989 41.217 62.1531 41.8082 61.4357 42.2471C61.2795 42.3421 61.1199 42.4312 60.957 42.5143C61.8522 43.0219 62.8518 43.3175 63.8791 43.3784H63.9041C63.9678 43.3784 64.0337 43.3784 64.1019 43.3909H64.7716C64.7966 43.3909 64.8216 43.3909 64.8466 43.3784C64.8955 43.3784 64.9456 43.3784 64.9944 43.3659H65.0684C65.1184 43.3659 65.1741 43.3522 65.2287 43.3477H65.24C65.2571 43.3477 65.2741 43.334 65.2901 43.334C65.3469 43.3227 65.406 43.3158 65.4617 43.3079H65.5129C65.5754 43.2942 65.6403 43.2863 65.7062 43.2738H65.7346C65.8642 43.2476 65.9916 43.2226 66.1189 43.1885C65.057 42.7826 64.1679 41.8253 63.4015 40.462" fill="#1969BC"/>
<path d="M48.2305 43.3918C49.0013 43.3918 49.779 43.3134 50.5601 43.1565C51.2833 43.02 52.0064 42.8108 52.7318 42.5459C53.8254 43.1068 55.0376 43.3969 56.2666 43.3918H48.2305Z" fill="#1E5CB3"/>
<path d="M56.2646 43.3922C58.1668 43.3922 59.6733 43.1569 60.9535 42.5156C61.8487 43.0231 62.8483 43.3187 63.8756 43.3797H63.9006C63.9643 43.3797 64.0302 43.3797 64.0984 43.3922H64.3292H56.2578H56.2635H56.2646Z" fill="#1E5CB3"/>
<path d="M64.3359 43.3944H64.776C64.8021 43.3944 64.826 43.3944 64.851 43.3819C64.8987 43.3819 64.9499 43.3819 65.0011 43.3694H65.0738C65.125 43.3694 65.1807 43.3558 65.233 43.3512H65.2467C65.2626 43.3512 65.2785 43.3387 65.2944 43.3387C65.3513 43.3262 65.4104 43.3205 65.465 43.3114C65.4843 43.3114 65.4991 43.3114 65.5184 43.2989C65.5821 43.2864 65.6469 43.2796 65.7117 43.2659H65.7435C65.8731 43.2409 65.9993 43.2148 66.1278 43.1807C66.4996 43.3251 66.8873 43.3967 67.3057 43.3967L64.3382 43.4103L64.3359 43.3944Z" fill="#1D60B5"/>
<path d="M61.7201 36.3445V36.332C60.9096 37.1443 60.0625 37.919 59.1812 38.6537C58.74 39.0187 58.3 39.3655 57.8555 39.6929C58.2273 40.1568 58.6059 40.5912 59.0038 40.9891C59.5824 41.5858 60.2414 42.099 60.9617 42.5138C61.122 42.4319 61.2823 42.3421 61.4392 42.2466C62.1578 41.8077 62.8036 41.2165 63.413 40.4399C62.782 39.3155 62.2283 37.9215 61.7223 36.3423" fill="#175FAB"/>
<path d="M86.9235 4.50293H82.13C81.8708 4.51544 81.6184 4.52567 81.3705 4.54159C81.2534 4.80423 81.1329 5.06687 81.0181 5.33065C77.0477 14.1536 72.8796 21.8009 68.6477 27.8781C66.658 34.2702 65.197 38.1496 63.4062 40.4303C64.1714 41.7947 65.0628 42.752 66.1214 43.1591C66.1532 43.1454 66.1782 43.1454 66.2055 43.1398H66.2225C66.2407 43.1398 66.2612 43.1261 66.2805 43.1261C66.3237 43.1136 66.3715 43.1057 66.4136 43.092C66.442 43.0784 66.4647 43.0772 66.4931 43.0693C66.5329 43.0556 66.5739 43.0465 66.6114 43.0352C66.6364 43.0238 66.6603 43.0192 66.6853 43.0136C66.7467 42.9931 66.8024 42.9783 66.8615 42.959C66.8897 42.9457 66.919 42.935 66.9491 42.9271C66.9832 42.9158 67.0173 42.9055 67.048 42.8908C67.0844 42.8771 67.1196 42.8703 67.1503 42.8567C67.1776 42.8441 67.2072 42.8362 67.2333 42.8248C67.3027 42.7987 67.3709 42.7771 67.4403 42.7486C67.4596 42.7486 67.4778 42.7304 67.4971 42.7259C67.5392 42.7077 67.5824 42.6941 67.6244 42.6747C67.6392 42.6622 67.6586 42.6611 67.6779 42.6543C67.8234 42.5906 67.9735 42.5269 68.1224 42.4564H68.1384C68.3521 42.3575 68.5681 42.2484 68.7819 42.1335C75.6629 38.1211 79.1375 24.6411 89.9388 4.50407H86.9213L86.9247 4.50293H86.9235Z" fill="url(#paint14_linear)"/>
<path d="M27.1914 5.38816C27.2085 5.38816 27.2244 5.38816 27.2414 5.40067C27.2824 5.40067 27.3244 5.40067 27.3665 5.41545H27.4074L27.636 5.44615C27.6507 5.44615 27.6621 5.44615 27.6746 5.45866C27.7383 5.47116 27.8031 5.48139 27.8679 5.49276C27.8816 5.49276 27.9009 5.50413 27.9157 5.50413C28.0635 5.53597 28.2158 5.56781 28.3602 5.60874C28.3739 5.60874 28.3886 5.62011 28.4 5.62011C28.4626 5.63602 28.5183 5.65535 28.5797 5.67354C28.5979 5.67354 28.6115 5.68605 28.6285 5.68946C28.7013 5.70879 28.7695 5.72812 28.84 5.75313C28.8434 5.75313 28.848 5.75313 28.8559 5.7645C28.9162 5.78497 28.9776 5.80998 29.0413 5.83158C29.0663 5.84295 29.089 5.84978 29.1129 5.85546L29.2448 5.91231C29.2698 5.91231 29.2948 5.9305 29.321 5.9396C29.3778 5.96688 29.4381 5.99076 29.4972 6.01691C29.5279 6.02942 29.554 6.0442 29.5836 6.05557C29.6177 6.07376 29.6518 6.08968 29.6894 6.10332L29.7837 6.1488C29.8167 6.16813 29.8474 6.18291 29.8781 6.19997C30.6593 6.60876 31.3751 7.13185 32.002 7.75194C32.243 7.48703 32.4954 7.25053 32.7558 7.03792C31.3277 5.98053 29.7087 5.37793 27.844 5.37793C27.628 5.37793 27.4108 5.39044 27.1914 5.40749" fill="#7DCBEC"/>
<path d="M32 7.73355C32.4002 8.12126 32.7822 8.55559 33.1449 9.02289C33.4963 8.76821 33.843 8.52262 34.1921 8.29522C33.7495 7.82938 33.2675 7.40257 32.7515 7.01953C32.49 7.23101 32.2399 7.46978 32 7.73355Z" fill="#5EC5ED"/>
<path d="M27.1855 5.38809C27.4049 5.36876 27.6209 5.3608 27.837 5.3608C29.7039 5.3608 31.3218 5.9634 32.7487 7.01852C34.2563 5.77808 36.0789 5.34375 38.6098 5.34375H26.3555C26.6374 5.34375 26.9137 5.36194 27.1855 5.38809Z" fill="url(#paint15_linear)"/>
<path d="M38.6128 5.34375C36.0818 5.34375 34.2604 5.77694 32.7539 7.01738C33.2542 7.3869 33.7351 7.81554 34.1922 8.29194C36.291 6.90027 38.3683 5.97818 40.4171 5.57569C41.1848 5.42331 41.9654 5.34563 42.748 5.34375H38.6128Z" fill="url(#paint16_linear)"/>
<path d="M68.6496 27.8926C69.7377 24.3896 70.9838 20.1373 72.529 14.9788C73.9218 10.332 76.3856 6.85853 81.0177 5.3418C81.1393 5.08257 81.2553 4.81538 81.3736 4.55273C73.8263 5.02458 70.2983 9.03243 68.5223 14.9675C65.4183 25.3276 63.5378 32.0426 61.7266 36.3234C64.0392 34.0153 66.3518 31.1831 68.6496 27.8926Z" fill="url(#paint17_linear)"/>
<defs>
<linearGradient id="paint0_linear" x1="41.9451" y1="5.09232" x2="41.9451" y2="52.8864" gradientUnits="userSpaceOnUse">
<stop stop-color="#0994DC"/>
<stop offset="0.35" stop-color="#66CEF5"/>
<stop offset="0.846" stop-color="#127BCA"/>
<stop offset="1" stop-color="#127BCA"/>
</linearGradient>
<linearGradient id="paint1_linear" x1="43.6996" y1="3.88122" x2="43.6996" y2="52.893" gradientUnits="userSpaceOnUse">
<stop stop-color="#0E76BC"/>
<stop offset="0.36" stop-color="#36AEE8"/>
<stop offset="0.846" stop-color="#00ADEF"/>
<stop offset="1" stop-color="#00ADEF"/>
</linearGradient>
<linearGradient id="paint2_linear" x1="53.1304" y1="42.2894" x2="53.1304" y2="3.29219" gradientUnits="userSpaceOnUse">
<stop stop-color="#1C63B7"/>
<stop offset="0.5" stop-color="#33BDF2"/>
<stop offset="1" stop-color="#33BDF2" stop-opacity="0.42"/>
</linearGradient>
<linearGradient id="paint3_linear" x1="50.6791" y1="-1.08296" x2="50.6791" y2="49.8037" gradientUnits="userSpaceOnUse">
<stop stop-color="#166AB8"/>
<stop offset="0.4" stop-color="#36AEE8"/>
<stop offset="0.846" stop-color="#0798DD"/>
<stop offset="1" stop-color="#0798DD"/>
</linearGradient>
<linearGradient id="paint4_linear" x1="46.8342" y1="-0.815644" x2="46.8342" y2="53.2966" gradientUnits="userSpaceOnUse">
<stop stop-color="#124379"/>
<stop offset="0.39" stop-color="#1487CB"/>
<stop offset="0.78" stop-color="#165197"/>
<stop offset="1" stop-color="#165197"/>
</linearGradient>
<linearGradient id="paint5_linear" x1="26.0078" y1="15.7959" x2="33.3379" y2="15.7959" gradientUnits="userSpaceOnUse">
<stop stop-color="#33BDF2" stop-opacity="0.698"/>
<stop offset="1" stop-color="#1DACD8"/>
</linearGradient>
<linearGradient id="paint6_linear" x1="81.0633" y1="41.3143" x2="81.0633" y2="3.32436" gradientUnits="userSpaceOnUse">
<stop stop-color="#136AB4"/>
<stop offset="0.6" stop-color="#59CAF5" stop-opacity="0.549"/>
<stop offset="1" stop-color="#59CAF5" stop-opacity="0.235"/>
</linearGradient>
<linearGradient id="paint7_linear" x1="-0.00113698" y1="24.8715" x2="27.1886" y2="24.8715" gradientUnits="userSpaceOnUse">
<stop stop-color="#05A1E6" stop-opacity="0.247"/>
<stop offset="1" stop-color="#05A1E6"/>
</linearGradient>
<linearGradient id="paint8_linear" x1="15.0592" y1="42.2715" x2="15.0592" y2="3.37316" gradientUnits="userSpaceOnUse">
<stop stop-color="#318ED5"/>
<stop offset="1" stop-color="#38A7E4"/>
</linearGradient>
<linearGradient id="paint9_linear" x1="17.4022" y1="42.408" x2="17.4022" y2="4.59666" gradientUnits="userSpaceOnUse">
<stop stop-color="#05A1E6"/>
<stop offset="1" stop-color="#05A1E6" stop-opacity="0.549"/>
</linearGradient>
<linearGradient id="paint10_linear" x1="19.3497" y1="44.3375" x2="19.3497" y2="12.3861" gradientUnits="userSpaceOnUse">
<stop stop-color="#1959A6"/>
<stop offset="0.5" stop-color="#05A1E6"/>
<stop offset="0.918" stop-color="#7EC5EA"/>
<stop offset="1" stop-color="#7EC5EA"/>
</linearGradient>
<linearGradient id="paint11_linear" x1="20.5249" y1="42.2946" x2="9.31773" y2="9.47907" gradientUnits="userSpaceOnUse">
<stop stop-color="#165096"/>
<stop offset="1" stop-color="#0D82CA"/>
</linearGradient>
<linearGradient id="paint12_linear" x1="74.8286" y1="22.7043" x2="74.8286" y2="4.59903" gradientUnits="userSpaceOnUse">
<stop stop-color="#05A1E6"/>
<stop offset="0.874" stop-color="#0495D6"/>
<stop offset="1" stop-color="#0495D6"/>
</linearGradient>
<linearGradient id="paint13_linear" x1="82.9896" y1="2.9248" x2="65.6404" y2="39.8334" gradientUnits="userSpaceOnUse">
<stop stop-color="#38A7E4" stop-opacity="0.329"/>
<stop offset="0.962" stop-color="#0E88D3"/>
<stop offset="1" stop-color="#0E88D3"/>
</linearGradient>
<linearGradient id="paint14_linear" x1="76.6759" y1="4.38809" x2="76.6759" y2="43.8856" gradientUnits="userSpaceOnUse">
<stop stop-color="#168CD4"/>
<stop offset="0.5" stop-color="#1C87CC"/>
<stop offset="1" stop-color="#154B8D"/>
</linearGradient>
<linearGradient id="paint15_linear" x1="28.3986" y1="3.57688" x2="28.5771" y2="7.7189" gradientUnits="userSpaceOnUse">
<stop stop-color="#97D6EE"/>
<stop offset="0.703" stop-color="#55C1EA"/>
<stop offset="1" stop-color="#55C1EA"/>
</linearGradient>
<linearGradient id="paint16_linear" x1="33.4418" y1="8.10661" x2="34.2468" y2="3.73038" gradientUnits="userSpaceOnUse">
<stop stop-color="#7ACCEC"/>
<stop offset="1" stop-color="#3FB7ED"/>
</linearGradient>
<linearGradient id="paint17_linear" x1="71.5501" y1="6.57428" x2="71.5501" y2="45.2066" gradientUnits="userSpaceOnUse">
<stop stop-color="#1DA7E7"/>
<stop offset="1" stop-color="#37ABE7" stop-opacity="0"/>
</linearGradient>
</defs>
</svg>
