<svg width="96" height="48" viewBox="0 0 96 48" fill="none" xmlns="http://www.w3.org/2000/svg">
<g clip-path="url(#clip0)">
<path d="M39.9527 25.806H46.0769L42.848 20.5902L36.9083 30.0142H34.2046L41.4287 18.7238C41.7339 18.2555 42.2732 18 42.8338 18C43.3944 18 43.9338 18.2555 44.2389 18.7238L51.4843 30.0426H48.7735L47.5103 27.9349H41.3152L39.9527 25.806ZM68.0118 27.9137V18.0923H65.7197V28.8717C65.7197 29.1768 65.8332 29.4536 66.0461 29.6665C66.2803 29.9006 66.5571 30.0142 66.8906 30.0142H77.3436L78.699 27.9066H68.0118V27.9137ZM30.0887 26.1609C32.3099 26.1609 34.1124 24.3584 34.1124 22.1372C34.1124 19.916 32.3099 18.1135 30.0887 18.1135H20.0615V30.0355H22.3536V20.2212H29.9255C31.0041 20.2212 31.8415 21.0869 31.8415 22.1585C31.8415 23.23 30.9758 24.1029 29.9255 24.1029H23.4749L30.3229 30.0639H33.644L29.0597 26.1609H30.0887ZM5.96097 30.0142C2.66115 30.0142 0 27.3459 0 24.0532C0 20.7605 2.66824 18.0923 5.96097 18.0923H12.88C16.1798 18.0923 18.8409 20.7605 18.8409 24.0532C18.8409 27.3459 16.1727 30.0142 12.88 30.0142H5.96097ZM12.7451 27.9137C14.874 27.9137 16.6056 26.1821 16.6056 24.0532C16.6056 21.9243 14.8669 20.1999 12.7451 20.1999H6.12419C3.97398 20.1999 2.24246 21.9243 2.24246 24.0532C2.24246 26.1821 3.97398 27.9137 6.1029 27.9137H12.7451ZM56.2744 30.0142C52.9746 30.0142 50.3134 27.3459 50.3134 24.0532C50.3134 20.7605 52.9817 18.0923 56.2744 18.0923H64.5062L63.1508 20.1999H56.4163C54.2874 20.1999 52.5559 21.9314 52.5559 24.0603C52.5559 26.1892 54.2874 27.9208 56.4163 27.9208H64.6694L63.314 30.0284H56.2744V30.0142ZM84.3051 27.9137C82.5523 27.9137 81.055 26.7215 80.5866 25.1106H90.3796L91.7351 23.003H80.5795C81.055 21.3921 82.531 20.1999 84.3051 20.1999H91.0396L92.395 18.0923H84.1632C80.8634 18.0923 78.2022 20.7605 78.2022 24.0532C78.2022 27.3459 80.8705 30.0142 84.1632 30.0142H91.2454L92.6008 27.9066H84.3051V27.9137Z" fill="#ED1C24"/>
<path d="M93.6088 19.3558C93.6088 18.7739 94.0772 18.3055 94.6591 18.3055C95.241 18.3055 95.7093 18.7739 95.7093 19.3558C95.7093 19.9377 95.241 20.4061 94.6591 20.4061C94.0772 20.4061 93.6088 19.9377 93.6088 19.3558ZM94.6662 20.7112C95.4113 20.7112 96.0003 20.1009 96.0003 19.3771C96.0003 18.632 95.39 18.043 94.6662 18.043C93.921 18.043 93.332 18.6533 93.332 19.3771C93.332 20.1009 93.9139 20.7112 94.6662 20.7112ZM94.5242 18.561C94.7371 18.561 94.8081 18.561 94.9216 18.6107C95.1771 18.7029 95.2055 18.9371 95.2055 19.0294C95.2055 19.0507 95.2055 19.1003 95.1842 19.1429C95.1629 19.1855 95.1345 19.3061 94.9997 19.3984C94.9784 19.3984 94.9784 19.4197 94.9287 19.4197L95.2764 20.0512H94.95L94.6449 19.4693H94.4604V20.0796H94.1552V18.561H94.5242ZM94.6378 19.2635C94.73 19.2635 94.8223 19.2635 94.8932 19.1713C94.9145 19.1216 94.9145 19.1003 94.9145 19.0294C94.9145 18.9584 94.8649 18.8874 94.801 18.8449C94.73 18.8236 94.6591 18.8236 94.5171 18.8236H94.4462V19.2423H94.6307V19.2635H94.6378Z" fill="#ED1C24"/>
</g>
<defs>
<clipPath id="clip0">
<rect width="96" height="12.0639" fill="white" transform="translate(0 18)"/>
</clipPath>
</defs>
</svg>
