<svg width="96" height="48" viewBox="0 0 96 48" fill="none" xmlns="http://www.w3.org/2000/svg">
<g clip-path="url(#clip0)">
<path d="M70.3611 28.7402C70.082 27.895 69.351 27.3063 68.4057 27.1651C67.9599 27.0985 67.4494 27.1269 66.8453 27.2514C65.7923 27.4687 65.0111 27.5514 64.441 27.5674C66.5929 23.9341 68.3428 19.7909 69.3501 15.8907C70.979 9.58428 70.1086 6.71129 69.0914 5.41179C66.3995 1.97213 62.4721 0.124315 57.734 0.0677751C55.2064 0.0368691 52.9876 0.53591 51.83 0.894783C50.7523 0.704621 49.5935 0.598449 48.3777 0.578815C46.0984 0.542455 44.0846 1.03931 42.3639 2.06049C41.4113 1.73834 39.8823 1.2842 38.1167 0.99441C33.964 0.31266 30.6171 0.843879 28.169 2.57334C25.2045 4.66732 23.8303 8.3055 24.0845 13.3868C24.1652 15.0001 25.0676 19.9087 26.4886 24.5639C27.3052 27.2396 28.176 29.4616 29.0769 31.1687C30.3544 33.5893 31.7213 35.0148 33.2559 35.5268C34.116 35.8133 35.6788 36.014 37.3224 34.645C37.5307 34.8974 37.8087 35.1481 38.1776 35.381C38.6461 35.6764 39.2189 35.9178 39.7911 36.0609C41.8529 36.5763 43.7841 36.4474 45.4318 35.7249C45.442 36.018 45.4498 36.298 45.4563 36.5398C45.4672 36.9319 45.4781 37.3164 45.4925 37.676C45.5901 40.1074 45.7556 41.9979 46.2457 43.3207C46.2726 43.3934 46.3088 43.5043 46.347 43.622C46.5915 44.3706 47.0003 45.624 48.0406 46.6055C49.1178 47.6223 50.4207 47.9341 51.6141 47.9341C52.2126 47.9341 52.7836 47.8555 53.2844 47.7483C55.0697 47.3656 57.0973 46.7827 58.5641 44.6942C59.9509 42.7199 60.625 39.7462 60.747 35.0606C60.7628 34.9281 60.7773 34.8016 60.7913 34.681L60.8204 34.4334L61.1471 34.4622L61.2313 34.4678C63.0497 34.5507 65.2731 34.1651 66.6386 33.5308C67.7175 33.0301 71.1752 31.2047 70.3611 28.7402Z" fill="black"/>
<path d="M67.2506 29.2195C61.8439 30.3349 61.4721 28.5043 61.4721 28.5043C67.1806 20.0337 69.5671 9.28152 67.5078 6.64996C61.8895 -0.528409 52.1641 2.86652 52.0018 2.95452L51.9496 2.96397C50.8813 2.74217 49.686 2.61019 48.3423 2.58819C45.896 2.54819 44.0402 3.22958 42.632 4.29747C42.632 4.29747 25.2828 -2.84981 26.0898 13.2864C26.2614 16.7191 31.01 39.2607 36.6738 32.4521C38.744 29.9624 40.7443 27.8573 40.7443 27.8573C41.7377 28.5172 42.927 28.8539 44.1738 28.733L44.2707 28.6509C44.2405 28.9599 44.2544 29.2622 44.3094 29.6202C42.8503 31.2504 43.2792 31.5366 40.3624 32.1371C37.4109 32.7454 39.1447 33.8282 40.2768 34.1114C41.6492 34.4545 44.8241 34.9406 46.9694 31.9374L46.8839 32.2801C47.4555 32.7381 47.8569 35.2586 47.7896 37.5436C47.7224 39.8285 47.6775 41.3972 48.1278 42.6225C48.5785 43.8479 49.0273 46.6049 52.8619 45.7833C56.0657 45.0967 57.7261 43.3174 57.9572 40.3493C58.121 38.2393 58.492 38.5513 58.5153 36.6648L58.8129 35.7718C59.156 32.9115 58.8674 31.9887 60.8412 32.4179L61.3212 32.4601C62.7738 32.5261 64.6754 32.2263 65.7915 31.7076C68.1945 30.5925 69.6198 28.7303 67.2502 29.2195H67.2506Z" fill="#336791"/>
<path d="M43.6466 14.8209C43.1594 14.7531 42.7182 14.8158 42.4949 14.9849C42.3695 15.08 42.3306 15.1901 42.32 15.266C42.292 15.4668 42.4327 15.689 42.5193 15.8035C42.764 16.1279 43.1214 16.3508 43.4752 16.3998C43.5265 16.4071 43.5775 16.4104 43.6283 16.4104C44.2182 16.4104 44.7547 15.951 44.802 15.6119C44.861 15.1872 44.2446 14.9042 43.6466 14.8211V14.8209ZM59.7876 14.8344C59.741 14.5015 59.1487 14.4066 58.5866 14.4848C58.0252 14.5629 57.4809 14.8164 57.5263 15.15C57.5627 15.4094 58.0312 15.8523 58.5857 15.8523C58.6326 15.8523 58.6798 15.8492 58.7275 15.8424C59.0976 15.7912 59.3692 15.5561 59.4983 15.4207C59.6947 15.2141 59.8085 14.984 59.7876 14.8344Z" fill="white"/>
<path d="M69.0509 29.093C68.8447 28.4697 68.1812 28.2691 67.0787 28.4967C63.8054 29.1723 62.6332 28.7044 62.2483 28.4209C64.7926 24.545 66.8856 19.8596 68.0148 15.4882C68.5497 13.4175 68.8451 11.4944 68.8693 9.92696C68.896 8.20659 68.6029 6.94235 67.9986 6.17007C65.5621 3.05674 61.9861 1.38673 57.6575 1.34091C54.6816 1.30746 52.1673 2.06902 51.6799 2.28318C50.6535 2.02793 49.5345 1.87122 48.3162 1.85122C46.0823 1.81505 44.1512 2.3499 42.5524 3.44016C41.858 3.18164 40.0632 2.56552 37.8684 2.21192C34.0738 1.60107 31.0585 2.06393 28.9067 3.58832C26.3392 5.40741 25.1538 8.65909 25.3834 13.2528C25.4607 14.7983 26.3413 19.5527 27.731 24.1059C29.5603 30.0988 31.5488 33.4913 33.641 34.1893C33.8859 34.2709 34.1682 34.328 34.4796 34.328C35.2428 34.328 36.1785 33.984 37.1521 32.8136C38.3395 31.3891 39.5678 29.9992 40.8355 28.6456C41.658 29.087 42.5615 29.3336 43.4856 29.3583C43.4874 29.3825 43.4898 29.4067 43.492 29.4306C43.3329 29.6203 43.1771 29.8128 43.0248 30.0079C42.3845 30.8207 42.2512 30.9899 40.1901 31.4143C39.6038 31.5353 38.0467 31.8562 38.0238 32.9477C37.9991 34.1404 39.8645 34.6412 40.0771 34.6943C40.8177 34.8797 41.5313 34.9712 42.2118 34.9712C43.8667 34.9712 45.3231 34.4272 46.487 33.3748C46.4511 37.6264 46.6284 41.8158 47.1389 43.0922C47.557 44.1372 48.5784 46.6909 51.8046 46.6907C52.278 46.6907 52.7991 46.6357 53.3723 46.5128C56.7394 45.791 58.2016 44.3028 58.7672 41.0219C59.0699 39.2684 59.5893 35.0814 59.8336 32.8354C60.3492 32.9963 61.013 33.0699 61.7305 33.0697C63.2271 33.0697 64.954 32.7518 66.037 32.2491C67.2536 31.6841 69.449 30.2976 69.0509 29.093ZM61.0324 13.9164C61.0213 14.5794 60.9301 15.1813 60.8333 15.8096C60.7292 16.4854 60.6215 17.1841 60.5945 18.0322C60.5677 18.8575 60.6708 19.7156 60.7704 20.5455C60.9719 22.2217 61.1786 23.9474 60.3785 25.6501C60.2456 25.4146 60.1272 25.1712 60.024 24.9213C59.9245 24.6802 59.7085 24.293 59.4095 23.757C58.2461 21.6707 55.5219 16.785 56.9165 14.7914C57.3319 14.198 58.3861 13.5879 61.0324 13.9164ZM57.8247 2.68351C61.7033 2.76913 64.7713 4.22008 66.9435 6.9958C68.6095 9.12486 66.7749 18.8124 61.464 27.17C61.4106 27.1021 61.3569 27.0344 61.3029 26.9669L61.2357 26.8829C62.6081 24.6164 62.3397 22.3739 62.1009 20.3857C62.0027 19.5698 61.91 18.7992 61.9336 18.0752C61.958 17.308 62.0594 16.6499 62.1576 16.0136C62.2781 15.2295 62.4008 14.4181 62.367 13.4617C62.3923 13.3613 62.4025 13.2428 62.3892 13.1021C62.3028 12.1849 61.2557 9.43992 59.1213 6.95544C57.9538 5.59649 56.2513 4.07573 53.9266 3.05001C54.9265 2.84276 56.2938 2.64951 57.8247 2.68351ZM36.1218 31.9569C35.0492 33.2466 34.3085 32.9994 34.0649 32.9183C32.4778 32.3889 30.6362 29.0343 29.0125 23.7149C27.6076 19.112 26.7866 14.4836 26.7215 13.1857C26.5164 9.08105 27.5114 6.22042 29.679 4.68312C33.2067 2.18156 39.0064 3.67886 41.3369 4.43824C41.3035 4.47133 41.2686 4.50223 41.2355 4.53587C37.4111 8.39802 37.5019 14.9966 37.5113 15.4001C37.5109 15.5557 37.524 15.776 37.5419 16.0791C37.6077 17.189 37.7302 19.2546 37.403 21.5938C37.099 23.7676 37.7691 25.8952 39.2411 27.4312C39.3922 27.5885 39.551 27.7383 39.7169 27.8799C39.0617 28.5816 37.6377 30.1335 36.1218 31.9569ZM40.2085 26.5042C39.0221 25.2662 38.4832 23.5441 38.7299 21.7792C39.0753 19.3082 38.9479 17.1561 38.8794 15.9998C38.8697 15.838 38.8612 15.6962 38.8563 15.5844C39.4149 15.089 42.004 13.7019 43.8503 14.1249C44.6928 14.3178 45.2062 14.8916 45.4196 15.8784C46.5242 20.9875 45.5658 23.1169 44.7957 24.8282C44.637 25.1807 44.487 25.5139 44.359 25.8586L44.2597 26.1252C44.0085 26.7989 43.7747 27.4254 43.6298 28.0202C42.3685 28.0166 41.1415 27.4778 40.2085 26.504V26.5042ZM40.4021 33.3944C40.0338 33.3024 39.7025 33.1426 39.5082 33.0101C39.6705 32.9338 39.9594 32.8298 40.4605 32.7265C42.8851 32.2275 43.2596 31.8751 44.0774 30.8369C44.2648 30.5987 44.4773 30.3289 44.7717 30.0002L44.772 29.9999C45.2104 29.509 45.4109 29.5923 45.7745 29.7432C46.0692 29.865 46.3562 30.2344 46.4726 30.6409C46.5277 30.8329 46.5895 31.1972 46.3871 31.4808C44.679 33.8726 42.1898 33.8418 40.4021 33.3944ZM53.0916 45.2027C50.1253 45.8383 49.0751 44.3248 48.383 42.5946C47.9363 41.4776 47.7167 36.4407 47.8725 30.8781C47.8745 30.8041 47.8639 30.7327 47.8435 30.6654C47.8253 30.5326 47.7976 30.4012 47.7607 30.2724C47.529 29.463 46.9645 28.786 46.2873 28.5053C46.0183 28.3938 45.5245 28.1893 44.9311 28.3411C45.0576 27.8197 45.2771 27.2309 45.5151 26.5933L45.6149 26.3251C45.7272 26.0228 45.8683 25.7096 46.0174 25.378C46.8233 23.5876 47.927 21.1353 46.7291 15.5953C46.2804 13.5202 44.782 12.5069 42.5106 12.7423C41.1489 12.8832 39.9031 13.4326 39.2817 13.7477C39.1481 13.8153 39.0259 13.8807 38.9117 13.9444C39.0852 11.8537 39.7404 7.94643 42.1914 5.47432C43.7347 3.91811 45.7899 3.14946 48.2941 3.19091C53.2281 3.27163 56.3922 5.80374 58.1778 7.91389C59.7165 9.73207 60.5497 11.5637 60.8822 12.5516C58.3816 12.2973 56.6808 12.7909 55.8188 14.0235C53.9431 16.7046 56.8448 21.9085 58.2394 24.4095C58.4952 24.8678 58.7159 25.264 58.7854 25.4323C59.2395 26.5329 59.8274 27.2678 60.2567 27.8041C60.3883 27.9684 60.5159 28.1279 60.613 28.2671C59.8556 28.4855 58.4952 28.99 58.6192 31.5117C58.5192 32.777 57.8082 38.7012 57.447 40.7942C56.9701 43.5594 55.9526 44.5893 53.0916 45.2029V45.2027ZM65.4729 31.0339C64.6984 31.3934 63.4024 31.663 62.1712 31.721C60.8113 31.7846 60.119 31.5686 59.9562 31.4357C59.8798 29.8642 60.4647 29.7001 61.0837 29.5263C61.1809 29.499 61.2758 29.4723 61.3675 29.4403C61.4244 29.4866 61.4867 29.5326 61.5551 29.5777C62.6481 30.2991 64.5975 30.3769 67.3498 29.8088L67.38 29.8028C67.0087 30.1498 66.3735 30.6156 65.4729 31.0339Z" fill="white"/>
</g>
<defs>
<clipPath id="clip0">
<rect width="46.5408" height="48" fill="white" transform="translate(24)"/>
</clipPath>
</defs>
</svg>
