<svg width="96" height="48" viewBox="0 0 96 48" fill="none" xmlns="http://www.w3.org/2000/svg">
<path d="M48.4936 1.5C36.7344 1.5 37.4686 6.59946 37.4686 6.59946L37.4817 11.8827H48.7032V13.4688H33.0247C33.0247 13.4688 25.5 12.6154 25.5 24.4803C25.5 36.3456 32.0677 35.9248 32.0677 35.9248H35.9873V30.4188C35.9873 30.4188 35.776 23.8511 42.4502 23.8511H53.58C53.58 23.8511 59.833 23.9521 59.833 17.8078V7.64838C59.833 7.64838 60.7827 1.5 48.4936 1.5ZM42.306 5.05285C42.5712 5.05261 42.8338 5.10466 43.0788 5.20603C43.3239 5.3074 43.5465 5.45609 43.734 5.64359C43.9215 5.8311 44.0702 6.05374 44.1716 6.29877C44.2729 6.5438 44.325 6.80642 44.3248 7.07159C44.325 7.33676 44.2729 7.59938 44.1716 7.84442C44.0702 8.08945 43.9215 8.31209 43.734 8.49959C43.5465 8.6871 43.3239 8.83579 43.0788 8.93716C42.8338 9.03852 42.5712 9.09058 42.306 9.09034C42.0408 9.09058 41.7782 9.03852 41.5332 8.93716C41.2882 8.83579 41.0655 8.6871 40.878 8.49959C40.6905 8.31209 40.5418 8.08945 40.4404 7.84442C40.3391 7.59938 40.287 7.33676 40.2873 7.07159C40.287 6.80642 40.3391 6.5438 40.4404 6.29877C40.5418 6.05374 40.6905 5.8311 40.878 5.64359C41.0655 5.45609 41.2882 5.3074 41.5332 5.20603C41.7782 5.10466 42.0408 5.05261 42.306 5.05285Z" fill="#3771A2"/>
<path d="M48.8254 47.579C60.5845 47.579 59.8503 42.4795 59.8503 42.4795L59.8372 37.1965H48.6155V35.6103H64.2941C64.2941 35.6103 71.8188 36.4637 71.8188 24.5985C71.8188 12.7334 65.251 13.1542 65.251 13.1542H61.3314V18.6599C61.3314 18.6599 61.5427 25.2277 54.8686 25.2277H43.7388C43.7388 25.2277 37.4858 25.1266 37.4858 31.2712V41.4308C37.4858 41.4308 36.5364 47.579 48.8254 47.579ZM55.0129 44.0265C54.7478 44.0267 54.4851 43.9747 54.2401 43.8733C53.9951 43.7719 53.7724 43.6232 53.5849 43.4357C53.3974 43.2482 53.2487 43.0256 53.1474 42.7806C53.046 42.5355 52.9939 42.2729 52.9942 42.0077C52.9939 41.7426 53.046 41.4799 53.1473 41.2349C53.2487 40.9898 53.3974 40.7671 53.5849 40.5796C53.7724 40.3921 53.995 40.2434 54.2401 40.142C54.4851 40.0406 54.7477 39.9886 55.0129 39.9888C55.2781 39.9886 55.5407 40.0406 55.7858 40.142C56.0308 40.2434 56.2534 40.3921 56.4409 40.5796C56.6284 40.7671 56.7771 40.9897 56.8785 41.2347C56.9799 41.4798 57.0319 41.7424 57.0317 42.0076C57.0319 42.2727 56.9799 42.5353 56.8785 42.7804C56.7771 43.0254 56.6284 43.2481 56.4409 43.4356C56.2534 43.6231 56.0308 43.7718 55.7858 43.8731C55.5407 43.9745 55.2781 44.0267 55.0129 44.0265Z" fill="#FFD040"/>
</svg>
