<svg width="96" height="48" viewBox="0 0 96 48" fill="none" xmlns="http://www.w3.org/2000/svg">
<path d="M47.9463 28.7315C50.5832 28.7315 52.7207 26.5939 52.7207 23.957C52.7207 21.3202 50.5832 19.1826 47.9463 19.1826C45.3095 19.1826 43.1719 21.3202 43.1719 23.957C43.1719 26.5939 45.3095 28.7315 47.9463 28.7315Z" fill="#00D8FF"/>
<path d="M47.9469 35.1269C41.2299 35.1269 35.3431 34.3307 30.9272 32.8286C24.8032 30.7308 21 27.3342 21 23.9574C21 20.7076 24.5208 17.5369 30.4218 15.473C35.2216 13.8043 41.4332 12.8867 47.9469 12.8867C54.3278 12.8867 60.4688 13.7874 65.2348 15.4278C71.2826 17.5172 74.8937 20.7076 74.8937 23.9659C74.8937 27.354 70.9579 30.7421 64.6193 32.8484C60.1808 34.3138 54.2572 35.1269 47.9469 35.1269ZM47.9469 15.6311C41.8285 15.6311 35.7694 16.5177 31.3253 18.0649C26.1189 19.886 23.7444 22.3989 23.7444 23.9574C23.7444 25.7023 26.517 28.4156 31.8138 30.2283C35.9473 31.64 41.5264 32.3797 47.9469 32.3797C53.9721 32.3797 59.5879 31.6174 63.7581 30.2339C69.5236 28.3281 72.1465 25.6458 72.1465 23.9574C72.1465 22.3932 69.7043 19.8691 64.3397 18.0282C59.8561 16.4781 54.0342 15.6311 47.9469 15.6311Z" fill="#00D8FF"/>
<path d="M37.1174 47.9987C36.1825 48.0192 35.2589 47.7912 34.4408 47.3381C31.6174 45.7146 30.6292 41.0757 31.7981 34.9347C32.7467 29.9598 35.0591 24.1096 38.3089 18.46C41.5135 12.9119 45.3675 8.0443 49.1537 4.74935C53.9818 0.539607 58.5501 -0.987872 61.3736 0.635604C64.2986 2.32967 65.2812 7.43726 63.9429 13.9707C62.997 18.5644 60.7383 24.1012 57.5845 29.5617C54.219 35.3836 50.588 40.0931 47.0813 43.1565C43.4956 46.3047 39.9154 47.9987 37.1174 47.9987ZM40.6891 19.8237C37.6313 25.1289 35.3754 30.8266 34.4944 35.4373C33.4639 40.8554 34.4549 44.1673 35.8102 44.9466C37.3235 45.8219 41.0618 44.7716 45.2743 41.087C48.5552 38.2127 51.9885 33.746 55.2043 28.1867C58.2141 22.9746 60.3628 17.74 61.2493 13.4145C62.4662 7.48526 61.4526 3.85432 59.9957 3.01011C58.6433 2.23084 55.2354 3.08635 50.9607 6.80763C47.3976 9.91341 43.7497 14.5297 40.6919 19.8208L40.6891 19.8237Z" fill="#00D8FF"/>
<path d="M58.7767 47.9988C56.1255 47.9988 52.7882 46.4177 49.3323 43.4418C45.5066 40.1496 41.5961 35.2284 38.3209 29.5843C35.1163 24.0419 32.8237 18.2765 31.8581 13.3411C30.6327 7.0618 31.5757 2.32972 34.3992 0.70342C37.3327 -0.990641 42.2483 0.70342 47.2317 5.13621C50.7384 8.24199 54.406 12.9684 57.5626 18.4289C60.9507 24.2678 63.2095 29.7622 64.0932 34.3164C65.3497 40.6663 64.3135 45.661 61.3856 47.3438C60.5889 47.7883 59.6889 48.0143 58.7767 47.9988ZM40.7067 28.2065C43.7843 33.5146 47.5846 38.3088 51.1337 41.3609C55.3067 44.958 58.6779 45.7542 60.0331 44.9664C61.5437 44.0968 62.5036 40.3416 61.4166 34.8501C60.5696 30.5895 58.4322 25.3859 55.2051 19.8068C52.1953 14.5919 48.7112 10.1139 45.4275 7.19168C41.0879 3.33769 37.296 2.21113 35.7855 3.08075C34.4302 3.86567 33.4674 7.24814 34.5516 12.816C35.4608 17.4577 37.6574 22.9239 40.6982 28.2065H40.7067Z" fill="#00D8FF"/>
</svg>
