<svg width="111" height="35" viewBox="0 0 111 35" fill="none" xmlns="http://www.w3.org/2000/svg">
  <path d="M110.936 8.335c-1.473-8.21-27.584-10.82-58.182-5.729C39.9 4.706 28.317 7.89 19.211 11.39c1.406.063 2.41.318 3.013.954.535.51.736 1.083.736 1.91v.827h-3.013v-.7c0-.573-.401-.954-1.004-.954-.602 0-.937.19-1.004.7-.067.127-.067.382 0 .572.335 1.274 4.753 2.037 5.29 4.329.066.254.2.954 0 1.845-.269 1.846-2.01 2.546-4.219 2.546-3.013 0-4.285-1.336-4.285-3.246v-.89h3.214v1.081c0 .573.468.955 1.138.955.603 0 1.004-.191 1.071-.7.067-.191.067-.573 0-.828-.602-1.4-4.753-2.1-5.289-4.391-.134-.51-.134-.955-.067-1.528.067-.318.2-.573.268-.827C5.15 17.564-.674 22.465.062 26.665c1.473 8.21 27.585 10.82 58.182 5.729C71.702 30.166 83.82 26.856 93.06 23.1h-.402c-2.075 0-3.95-.764-4.15-2.8-.068-.382-.068-.573-.068-.764v-4.71c0-.191 0-.573.067-.764.201-1.973 1.875-2.8 4.151-2.8 1.808 0 3.883.509 4.151 2.8.067.255 0 .573 0 .7v.51h-3.013v-.637s0-.255-.067-.446c-.067-.19-.267-.763-1.138-.763-.87 0-1.071.572-1.138.763-.067.128-.067.319-.067.573V20.3c0 .064.2.764 1.138.764 1.005 0 1.138-.7 1.138-.764 0-.19.067-.318 0-.445v-1.591H92.39v-1.719h4.218v2.992c0 .19 0 .382-.067.7-.066.573-.2.955-.535 1.337 9.976-4.265 15.667-9.102 14.93-13.24zM31.53 22.91l-1.54-9.929h-.067l-1.54 9.93H25.17l2.21-11.203h5.289L34.81 22.91h-3.28zm15.6 0l-.134-9.738h-.067l-1.874 9.738h-3.013l-1.875-9.738H40.1l-.067 9.738H37.02l.201-11.202h4.82l1.407 8.274h.067l1.406-8.274h4.82l.402 11.202H47.13zm14.127-2.164c-.334 2.164-2.61 2.546-4.15 2.546-2.612 0-4.219-1.082-4.219-3.246v-.891h3.147v1.21c0 .572.469.954 1.138.954.603 0 1.005-.191 1.071-.7.067-.191.067-.573 0-.828-.602-1.4-4.686-2.1-5.222-4.328a2.718 2.718 0 010-1.464c.335-2.1 2.41-2.482 4.084-2.482 1.473 0 2.611.318 3.214.955.469.445.736 1.082.736 1.846v.827h-3.012v-.827c0-.573-.402-.955-1.005-.955-.602 0-.937.19-1.004.7 0 .127-.067.318 0 .573.335 1.273 4.754 2.037 5.222 4.264.067.319.134.955 0 1.846zm11.048-1.018c0 .19 0 .636-.067.763-.201 1.846-1.54 2.801-4.151 2.801-2.612 0-3.95-.955-4.152-2.8 0-.128-.067-.573-.067-.7v-8.084h3.013V20.428c.067.19.201.764 1.072.764.87 0 1.004-.573 1.07-.764V11.708h3.014c.267 0 .267 8.02.267 8.02zm13.055 3.055h-4.218l-2.812-8.91h-.067l.201 8.91h-2.946V11.708h4.42l2.61 8.529h.067l-.2-8.529h3.012l-.067 11.075z" fill="#2F80ED"/>
</svg>
