<?xml version="1.0" encoding="UTF-8"?><svg id="Layer_1" xmlns="http://www.w3.org/2000/svg" viewBox="0 0 631.64 132.08"><defs><style>.cls-1{fill:#040707;}.cls-2{fill:#d91e53;}.cls-3{fill:#69bd54;}</style></defs><g><path d="M126.64,77.83c0,.96,.64,1.74,1.91,2.34,1.27,.6,2.82,1.13,4.64,1.58,1.82,.46,3.65,1.03,5.47,1.73,1.82,.7,3.37,1.86,4.64,3.49,1.27,1.63,1.91,3.67,1.91,6.12,0,3.7-1.38,6.54-4.14,8.53-2.76,1.99-6.2,2.99-10.33,2.99-7.39,0-12.43-2.86-15.12-8.57l8.06-4.54c1.06,3.12,3.41,4.68,7.06,4.68,3.31,0,4.97-1.03,4.97-3.1,0-.96-.64-1.74-1.91-2.34-1.27-.6-2.82-1.14-4.64-1.62-1.82-.48-3.65-1.08-5.47-1.8-1.82-.72-3.37-1.86-4.64-3.42-1.27-1.56-1.91-3.52-1.91-5.87,0-3.55,1.31-6.35,3.92-8.39,2.62-2.04,5.87-3.06,9.76-3.06,2.93,0,5.59,.66,7.99,1.98,2.4,1.32,4.3,3.2,5.69,5.65l-7.92,4.32c-1.15-2.45-3.07-3.67-5.76-3.67-1.2,0-2.2,.26-2.99,.79-.79,.53-1.19,1.25-1.19,2.16Z"/><path d="M170.7,76.53h-8.14v14.98c0,1.25,.31,2.16,.94,2.74,.62,.58,1.54,.9,2.74,.97,1.2,.07,2.69,.06,4.46-.04v8.42c-6.38,.72-10.88,.12-13.5-1.8-2.62-1.92-3.92-5.35-3.92-10.3v-14.98h-6.26v-8.93h6.26v-7.27l9.29-2.81v10.08h8.14v8.93Z"/><path d="M187.12,73.79c.86-2.3,2.29-4.03,4.28-5.18,1.99-1.15,4.21-1.73,6.66-1.73v10.37c-2.83-.33-5.36,.24-7.6,1.73-2.23,1.49-3.35,3.96-3.35,7.42v17.21h-9.29v-36h9.29v6.19Z"/><path d="M229.45,67.6h9.29v36h-9.29v-4.25c-2.79,3.5-6.7,5.26-11.74,5.26s-8.92-1.84-12.35-5.51c-3.43-3.67-5.15-8.17-5.15-13.5s1.72-9.83,5.15-13.5c3.43-3.67,7.55-5.51,12.35-5.51,5.04,0,8.95,1.75,11.74,5.26v-4.25Zm-17.14,25.31c1.87,1.9,4.25,2.84,7.13,2.84s5.27-.95,7.16-2.84,2.84-4.33,2.84-7.31-.95-5.41-2.84-7.31c-1.9-1.9-4.28-2.84-7.16-2.84s-5.26,.95-7.13,2.84c-1.87,1.9-2.81,4.33-2.81,7.31s.94,5.41,2.81,7.31Z"/><path d="M287.7,67.6h8.91l-10.5,36h-9.1l-6.81-21.82-6.81,21.82h-9.1l-10.58-36h9.82l6.16,22.1,6.56-22.1h8.79l6.56,22.18,6.1-22.18Z"/><path d="M323.55,66.59c4.85,0,8.99,1.84,12.42,5.51,3.43,3.67,5.15,8.17,5.15,13.5s-1.72,9.83-5.15,13.5c-3.43,3.67-7.57,5.51-12.42,5.51s-8.93-1.75-11.66-5.26v4.25h-9.29V53.2h9.29v18.65c2.74-3.5,6.62-5.26,11.66-5.26Zm-8.86,26.32c1.87,1.9,4.25,2.84,7.13,2.84s5.27-.95,7.16-2.84,2.84-4.33,2.84-7.31-.95-5.41-2.84-7.31c-1.9-1.9-4.28-2.84-7.16-2.84s-5.26,.95-7.13,2.84c-1.87,1.9-2.81,4.33-2.81,7.31s.94,5.41,2.81,7.31Z"/><path d="M355.52,89.42c1.25,4.51,4.63,6.77,10.15,6.77,3.55,0,6.24-1.2,8.06-3.6l7.49,4.32c-3.55,5.14-8.78,7.7-15.7,7.7-5.95,0-10.73-1.8-14.33-5.4-3.6-3.6-5.4-8.14-5.4-13.61s1.78-9.95,5.33-13.57c3.55-3.62,8.11-5.44,13.68-5.44,5.28,0,9.64,1.82,13.07,5.47,3.43,3.65,5.15,8.16,5.15,13.54,0,1.2-.12,2.47-.36,3.82h-27.14Zm-.14-7.2h18.36c-.53-2.45-1.62-4.27-3.28-5.47-1.66-1.2-3.54-1.8-5.65-1.8-2.5,0-4.56,.64-6.19,1.91-1.63,1.27-2.71,3.06-3.24,5.36Z"/><path d="M398.79,73.79c.86-2.3,2.29-4.03,4.28-5.18,1.99-1.15,4.21-1.73,6.66-1.73v10.37c-2.83-.33-5.36,.24-7.6,1.73-2.23,1.49-3.35,3.96-3.35,7.42v17.21h-9.29v-36h9.29v6.19Z"/><path d="M424.42,73.79c.86-2.3,2.29-4.03,4.28-5.18,1.99-1.15,4.21-1.73,6.66-1.73v10.37c-2.83-.33-5.36,.24-7.6,1.73-2.23,1.49-3.35,3.96-3.35,7.42v17.21h-9.29v-36h9.29v6.19Z"/><path d="M465.03,67.6h9.94l-13.13,36.06c-1.87,5.14-4.35,8.88-7.45,11.21-3.09,2.33-6.94,3.38-11.54,3.13v-8.64c2.5,.05,4.48-.48,5.94-1.58,1.46-1.1,2.63-2.88,3.49-5.33l-14.76-34.85h10.15l9.39,24.2,7.96-24.2Z"/><path d="M497.36,103.6V51.04h9.29v52.56h-9.29Z"/><path d="M542.5,67.6h9.29v36h-9.29v-4.25c-2.79,3.5-6.7,5.26-11.74,5.26s-8.92-1.84-12.35-5.51c-3.43-3.67-5.15-8.17-5.15-13.5s1.72-9.83,5.15-13.5c3.43-3.67,7.55-5.51,12.35-5.51,5.04,0,8.95,1.75,11.74,5.26v-4.25Zm-17.14,25.31c1.87,1.9,4.25,2.84,7.13,2.84s5.27-.95,7.16-2.84,2.84-4.33,2.84-7.31-.95-5.41-2.84-7.31c-1.9-1.9-4.28-2.84-7.16-2.84s-5.26,.95-7.13,2.84c-1.87,1.9-2.81,4.33-2.81,7.31s.94,5.41,2.81,7.31Z"/><path d="M581.16,66.59c4.85,0,8.99,1.84,12.42,5.51,3.43,3.67,5.15,8.17,5.15,13.5s-1.72,9.83-5.15,13.5c-3.43,3.67-7.57,5.51-12.42,5.51s-8.93-1.75-11.66-5.26v4.25h-9.29V53.2h9.29v18.65c2.74-3.5,6.62-5.26,11.66-5.26Zm-8.86,26.32c1.87,1.9,4.25,2.84,7.13,2.84s5.27-.95,7.16-2.84,2.84-4.33,2.84-7.31-.95-5.41-2.84-7.31c-1.9-1.9-4.28-2.84-7.16-2.84s-5.26,.95-7.13,2.84c-1.87,1.9-2.81,4.33-2.81,7.31s.94,5.41,2.81,7.31Z"/><path d="M613.06,77.83c0,.96,.63,1.74,1.91,2.34,1.27,.6,2.82,1.13,4.64,1.58,1.82,.46,3.65,1.03,5.47,1.73,1.82,.7,3.37,1.86,4.64,3.49,1.27,1.63,1.91,3.67,1.91,6.12,0,3.7-1.38,6.54-4.14,8.53-2.76,1.99-6.2,2.99-10.33,2.99-7.39,0-12.43-2.86-15.12-8.57l8.06-4.54c1.05,3.12,3.41,4.68,7.06,4.68,3.31,0,4.97-1.03,4.97-3.1,0-.96-.64-1.74-1.91-2.34-1.27-.6-2.82-1.14-4.64-1.62-1.82-.48-3.65-1.08-5.47-1.8-1.83-.72-3.37-1.86-4.64-3.42-1.27-1.56-1.91-3.52-1.91-5.87,0-3.55,1.31-6.35,3.92-8.39,2.62-2.04,5.87-3.06,9.76-3.06,2.93,0,5.59,.66,7.99,1.98,2.4,1.32,4.29,3.2,5.69,5.65l-7.92,4.32c-1.15-2.45-3.07-3.67-5.76-3.67-1.2,0-2.2,.26-2.99,.79-.79,.53-1.19,1.25-1.19,2.16Z"/></g><g><path id="Fruit" class="cls-2" d="M44.28,41.31c7.07,0,14.14,0,21.22,0,3.56,0,6.97,.7,10.18,2.28,4.22,2.09,7.37,5.29,9.62,9.4,1.52,2.78,2.44,5.76,2.89,8.9,.3,2.1,.24,4.21,.12,6.31-.32,5.7-1.78,11.14-3.66,16.49-2.79,7.94-6.17,15.62-10.45,22.88-2.89,4.9-6.13,9.54-9.86,13.84-2.3,2.65-4.84,5.03-7.77,6.98-2.51,1.66-5.22,2.85-8.2,3.38-2.07,.37-4.16,.38-6.25,.19-2.78-.26-5.43-1.01-7.92-2.26-2.02-1.02-3.83-2.35-5.55-3.82-2.69-2.31-5.01-4.96-7.17-7.76-5.9-7.65-10.62-15.99-14.37-24.88-1.99-4.72-3.76-9.52-5.14-14.46-.81-2.91-1.43-5.85-1.73-8.85-.38-3.76-.4-7.52,.61-11.19,2.32-8.48,7.63-14.1,16.12-16.61,2-.59,4.06-.8,6.15-.8,7.05,0,14.11,0,21.16,0Zm-1.33,52.88c0,.57,.08,1.11,.29,1.63,.1,.27,.23,.52,.45,.71,.33,.3,.72,.3,1.05,0,.11-.11,.22-.24,.29-.38,.61-1.28,.61-2.56,.01-3.84-.15-.33-.39-.61-.8-.62-.43-.01-.66,.29-.85,.62-.05,.09-.1,.19-.14,.29-.21,.52-.28,1.06-.3,1.59Zm0-41.14c0,.59,.08,1.15,.3,1.68,.18,.43,.4,.89,.94,.89,.57,0,.8-.47,.98-.92,.27-.69,.34-1.41,.26-2.14-.06-.5-.16-.98-.42-1.42-.46-.79-1.13-.79-1.6-.02-.07,.12-.13,.25-.18,.38-.2,.5-.27,1.03-.28,1.55Zm-9.79,21.79c0,.39,.08,.97,.33,1.51,.19,.41,.41,.83,.95,.81,.5-.02,.73-.41,.89-.81,.47-1.15,.47-2.32,0-3.46-.17-.4-.41-.79-.91-.79-.5,0-.73,.39-.91,.79-.26,.55-.35,1.15-.34,1.95Zm-10.22,19.32c0-.48-.09-1.04-.3-1.57-.1-.25-.23-.48-.43-.67-.33-.31-.72-.31-1.05-.02-.2,.18-.34,.41-.44,.66-.41,1.11-.41,2.22,0,3.32,.07,.18,.17,.35,.29,.5,.41,.51,.93,.5,1.33-.02,.18-.23,.29-.49,.37-.76,.14-.44,.21-.9,.21-1.45Zm10.22,19.77c0,.36,.07,.85,.22,1.32,.09,.29,.22,.56,.43,.79,.37,.41,.82,.41,1.2,.01,.2-.21,.33-.46,.41-.74,.33-1.01,.34-2.02,0-3.02-.09-.25-.21-.49-.38-.69-.38-.43-.85-.44-1.23-.01-.17,.19-.28,.41-.37,.64-.19,.5-.27,1.02-.28,1.7ZM14.13,74.65c.01-.52-.07-1.02-.24-1.51-.1-.3-.25-.59-.49-.81-.34-.31-.71-.31-1.05,0-.17,.16-.3,.35-.39,.57-.46,1.15-.46,2.31-.02,3.47,.07,.18,.18,.35,.31,.5,.39,.43,.84,.44,1.23,0,.19-.21,.32-.47,.41-.74,.16-.47,.24-.96,.23-1.46Zm38.63-.2c0,1,.22,1.84,.55,2.3,.42,.57,.97,.57,1.4,0,.07-.1,.14-.21,.19-.32,.51-1.2,.51-2.41-.01-3.61-.17-.38-.42-.73-.9-.72-.44,.01-.67,.36-.85,.71-.28,.57-.37,1.18-.38,1.64Zm2.52,39.37c-.02-.56-.09-1.12-.31-1.65-.1-.25-.23-.48-.43-.66-.33-.3-.72-.3-1.05,0-.19,.17-.31,.38-.41,.61-.18,.39-.26,.81-.3,1.23-.07,.84,0,1.67,.43,2.42,.45,.79,1.14,.79,1.6,0,.12-.2,.2-.42,.27-.63,.14-.42,.18-.87,.2-1.32ZM22.94,55.04c0-.12,.01-.25,0-.37-.07-.64-.18-1.27-.59-1.79-.4-.5-.89-.5-1.3-.01-.1,.12-.18,.26-.25,.41-.25,.48-.33,1.01-.35,1.54-.03,.81,.06,1.6,.52,2.3,.43,.64,1.01,.64,1.45,0,.08-.12,.15-.24,.21-.37,.23-.55,.32-1.12,.31-1.71Zm45.06-.11c-.01-.54-.09-1.06-.31-1.56-.18-.41-.4-.84-.92-.86-.55-.01-.78,.43-.96,.86-.35,.83-.38,1.68-.23,2.56,.08,.44,.21,.86,.48,1.23,.42,.57,.97,.57,1.4,0,.14-.19,.23-.4,.31-.61,.19-.52,.23-1.07,.24-1.62Zm0,39.33c-.02-.46-.05-.95-.21-1.43-.11-.32-.24-.63-.49-.87-.35-.35-.77-.35-1.12,0-.1,.1-.19,.21-.25,.34-.61,1.28-.61,2.56-.02,3.84,.16,.34,.41,.63,.85,.62,.41-.01,.63-.3,.8-.62,.11-.2,.19-.42,.26-.64,.13-.39,.14-.8,.17-1.25Zm8.81-19.59c0-.69-.12-1.34-.35-1.81-.19-.37-.41-.74-.88-.75-.47-.01-.73,.35-.89,.73-.52,1.2-.52,2.41,0,3.61,.16,.38,.4,.74,.89,.73,.48,0,.7-.37,.88-.75,.27-.55,.35-1.15,.35-1.76Z"/><path id="Right_Leaf" class="cls-3" d="M64.86,9.29c-1.52,.54-2.89,1.34-4.18,2.28-1.87,1.36-3.51,2.98-5.08,4.67-2.92,3.17-5.3,6.73-7.41,10.48-.8,1.42-1.55,2.87-2.28,4.32-.13,.25-.25,.51-.4,.75-.28,.45-.45,.45-.8,.04-.03-.04-.07-.08-.1-.12-1.64-2.2-2.6-4.66-2.83-7.39-.37-4.29,.84-8.13,3.33-11.59,2.33-3.22,5.35-5.64,8.86-7.47,3.46-1.81,7.14-3.01,10.95-3.84,3.28-.72,6.6-1.11,9.95-1.3,1.22-.07,2.44-.09,3.67-.13,.32-.01,.63,.03,.96,.04,.03,.25-.12,.39-.21,.55-.84,1.46-1.71,2.9-2.49,4.39-1.57,3.03-2.79,6.2-3.94,9.4-1.18,3.28-2.31,6.59-3.62,9.82-.99,2.42-2.07,4.78-3.56,6.94-.7,1.01-1.47,1.95-2.38,2.78-2.42,2.21-5.25,2.98-8.46,2.44-1.81-.3-3.51-.98-5.21-1.62-.12-.04-.22-.11-.33-.17-.29-.17-.41-.43-.34-.76,.01-.07,.03-.14,.06-.21,.77-2.34,1.42-4.71,2.42-6.97,2.02-4.58,4.83-8.61,8.27-12.22,1.14-1.19,2.33-2.33,3.57-3.42,.59-.51,1.14-1.06,1.67-1.64,.05-.05,.19-.06,.09-.16-.04-.04-.12,.02-.14,.09Z"/><path id="Left_Leaf" class="cls-3" d="M22.4,9.88c-.01,.09,.04,.15,.1,.19,.6,.43,1.03,1.02,1.5,1.57,2.8,3.28,5.44,6.68,7.69,10.36,2.42,3.97,4.31,8.18,5.68,12.62,.05,.15,.1,.3,.13,.46,.16,.71-.02,1-.72,1.13-.14,.03-.28,.05-.42,.06-2.2,.3-4.41,.41-6.62,.08-3.59-.53-6.42-2.3-8.61-5.17-1.07-1.4-1.9-2.95-2.63-4.54-1.23-2.68-2.18-5.46-3.09-8.26-1.12-3.45-2.23-6.91-3.59-10.28-.81-2.01-1.7-3.97-2.7-5.89-.45-.85-.35-1.02,.61-1,3.56,.07,7.12,.21,10.66,.66,4.19,.54,8.25,1.56,12.03,3.5,4.14,2.12,6.98,5.36,8.47,9.78,.26,.78,.3,1.54,.06,2.34-.87,2.98-.91,6.01-.39,9.05,.14,.82,.31,1.63,.53,2.44,.11,.43,.15,.86-.1,1.31-.21-.13-.27-.32-.37-.48-1.73-2.95-3.58-5.83-5.68-8.54-2.5-3.23-5.26-6.22-8.45-8.8-.92-.75-1.9-1.42-2.93-2.02-.2-.12-.39-.25-.55-.41-.17-.17-.37-.27-.61-.16Z"/><g id="Seeds"><path d="M42.96,94.2c.01-.54,.09-1.08,.3-1.59,.04-.1,.08-.2,.14-.29,.19-.33,.42-.64,.85-.62,.4,.01,.65,.3,.8,.62,.6,1.28,.59,2.57-.01,3.84-.07,.14-.18,.27-.29,.38-.32,.31-.71,.3-1.05,0-.22-.19-.35-.45-.45-.71-.2-.52-.28-1.06-.29-1.63Z"/><path d="M42.96,53.05c.01-.52,.09-1.05,.28-1.55,.05-.13,.11-.26,.18-.38,.47-.78,1.14-.77,1.6,.02,.26,.44,.36,.92,.42,1.42,.08,.73,.02,1.45-.26,2.14-.18,.45-.41,.92-.98,.92-.54,0-.76-.46-.94-.89-.22-.53-.3-1.09-.3-1.68Z"/><path d="M33.17,74.84c0-.8,.09-1.4,.34-1.95,.18-.39,.42-.79,.91-.79,.49,0,.74,.39,.91,.79,.48,1.15,.48,2.31,0,3.46-.16,.4-.39,.79-.89,.81-.54,.02-.76-.4-.95-.81-.25-.54-.33-1.12-.33-1.51Z"/><path d="M22.95,94.16c0,.55-.07,1.01-.21,1.45-.08,.27-.2,.53-.37,.76-.41,.52-.92,.53-1.33,.02-.12-.15-.23-.32-.29-.5-.42-1.1-.42-2.22,0-3.32,.09-.25,.23-.48,.44-.66,.33-.3,.72-.29,1.05,.02,.2,.19,.33,.42,.43,.67,.22,.53,.29,1.09,.3,1.57Z"/><path d="M33.16,113.93c0-.68,.09-1.2,.28-1.7,.09-.23,.2-.45,.37-.64,.38-.43,.85-.42,1.23,.01,.18,.2,.3,.44,.38,.69,.34,1.01,.34,2.02,0,3.02-.09,.27-.22,.52-.41,.74-.37,.4-.82,.4-1.2-.01-.21-.23-.34-.5-.43-.79-.15-.47-.23-.96-.22-1.32Z"/><path d="M14.13,74.65c.01,.5-.07,.99-.23,1.46-.09,.27-.21,.53-.41,.74-.39,.43-.85,.43-1.23,0-.13-.15-.24-.31-.31-.5-.45-1.16-.45-2.32,.02-3.47,.09-.21,.21-.41,.39-.57,.34-.3,.71-.3,1.05,0,.24,.22,.38,.51,.49,.81,.17,.49,.25,.99,.24,1.51Z"/><path d="M52.75,74.45c.02-.46,.1-1.07,.38-1.64,.18-.36,.41-.7,.85-.71,.47-.01,.73,.34,.9,.72,.52,1.2,.52,2.4,.01,3.61-.05,.11-.12,.22-.19,.32-.42,.57-.97,.57-1.4,0-.34-.45-.56-1.29-.55-2.3Z"/><path d="M55.27,113.82c-.02,.45-.06,.89-.2,1.32-.07,.22-.15,.44-.27,.63-.46,.78-1.15,.78-1.6,0-.43-.75-.51-1.58-.43-2.42,.04-.42,.12-.84,.3-1.23,.1-.23,.23-.44,.41-.61,.33-.3,.72-.3,1.05,0,.2,.18,.33,.42,.43,.66,.22,.53,.29,1.09,.31,1.65Z"/><path d="M22.94,55.04c0,.59-.08,1.17-.31,1.71-.06,.13-.13,.25-.21,.37-.44,.63-1.03,.63-1.45,0-.46-.69-.55-1.49-.52-2.3,.02-.53,.11-1.06,.35-1.54,.07-.14,.15-.28,.25-.41,.4-.49,.9-.49,1.3,.01,.42,.52,.52,1.15,.59,1.79,.01,.12,0,.25,0,.37Z"/><path d="M67.99,54.93c0,.55-.04,1.1-.24,1.62-.08,.22-.18,.43-.31,.61-.42,.57-.97,.58-1.4,0-.27-.36-.4-.79-.48-1.23-.15-.87-.12-1.73,.23-2.56,.18-.43,.42-.88,.96-.86,.51,.01,.73,.44,.92,.86,.22,.49,.29,1.02,.31,1.56Z"/><path d="M68,94.25c-.03,.45-.04,.86-.17,1.25-.07,.22-.15,.44-.26,.64-.17,.32-.39,.61-.8,.62-.44,.01-.69-.28-.85-.62-.6-1.28-.59-2.57,.02-3.84,.06-.13,.15-.24,.25-.34,.35-.35,.77-.35,1.12,0,.24,.24,.38,.55,.49,.87,.16,.48,.19,.97,.21,1.43Z"/><path d="M76.8,74.66c0,.61-.08,1.2-.35,1.76-.18,.37-.4,.74-.88,.75-.49,0-.73-.35-.89-.73-.52-1.2-.52-2.41,0-3.61,.16-.38,.42-.74,.89-.73,.47,.01,.69,.38,.88,.75,.23,.47,.36,1.12,.35,1.81Z"/></g><path class="cls-1" d="M64.86,9.29c.02-.07,.1-.14,.14-.09,.1,.1-.04,.12-.09,.16-.02-.02-.03-.05-.05-.07Z"/></g></svg>